ISO-10303-21;
HEADER;
FILE_DESCRIPTION (( 'STEP AP214' ),
    '1' );
FILE_NAME ('Back Part 2.STEP',
    '2026-01-03T09:22:46',
    ( '' ),
    ( '' ),
    'SwSTEP 2.0',
    'SolidWorks 2025',
    '' );
FILE_SCHEMA (( 'AUTOMOTIVE_DESIGN' ));
ENDSEC;

DATA;
#1 = ORIENTED_EDGE ( 'NONE', *, *, #580, .F. ) ;
#2 = EDGE_CURVE ( 'NONE', #291, #840, #1238, .T. ) ;
#3 = ORIENTED_EDGE ( 'NONE', *, *, #1202, .F. ) ;
#4 = PLANE ( 'NONE',  #1116 ) ;
#5 = LINE ( 'NONE', #809, #1199 ) ;
#6 = VECTOR ( 'NONE', #217, 1000.000000000000000 ) ;
#7 = AXIS2_PLACEMENT_3D ( 'NONE', #116, #928, #19 ) ;
#8 = EDGE_LOOP ( 'NONE', ( #266, #1222, #980, #751 ) ) ;
#9 = VECTOR ( 'NONE', #755, 1000.000000000000000 ) ;
#10 = DIRECTION ( 'NONE',  ( 0.000000000000000000, 0.000000000000000000, -1.000000000000000000 ) ) ;
#11 = EDGE_CURVE ( 'NONE', #1298, #372, #536, .T. ) ;
#12 = PLANE ( 'NONE',  #625 ) ;
#13 = VECTOR ( 'NONE', #1037, 1000.000000000000000 ) ;
#14 = AXIS2_PLACEMENT_3D ( 'NONE', #1218, #692, #308 ) ;
#15 = CARTESIAN_POINT ( 'NONE',  ( -14.99999999999995737, 0.5000000000000000000, -26.80000000000001137 ) ) ;
#16 = CARTESIAN_POINT ( 'NONE',  ( -25.00000000000000000, 3.000000000000000000, -29.00000000000000355 ) ) ;
#17 = ORIENTED_EDGE ( 'NONE', *, *, #814, .F. ) ;
#18 = ORIENTED_EDGE ( 'NONE', *, *, #537, .F. ) ;
#19 = DIRECTION ( 'NONE',  ( 0.000000000000000000, 0.000000000000000000, 1.000000000000000000 ) ) ;
#20 = AXIS2_PLACEMENT_3D ( 'NONE', #242, #235, #1144 ) ;
#21 = EDGE_LOOP ( 'NONE', ( #454, #316, #118, #911 ) ) ;
#22 = EDGE_CURVE ( 'NONE', #718, #786, #753, .T. ) ;
#23 = LINE ( 'NONE', #1232, #436 ) ;
#24 = CARTESIAN_POINT ( 'NONE',  ( 25.00000000000000000, 1.500000000000000000, -29.00000000000000355 ) ) ;
#25 = DIRECTION ( 'NONE',  ( 1.000000000000000000, 0.000000000000000000, 0.000000000000000000 ) ) ;
#26 = ADVANCED_FACE ( 'NONE', ( #553, #464 ), #1066, .F. ) ;
#27 = CARTESIAN_POINT ( 'NONE',  ( -35.00000000000000000, 3.000000000000000000, 28.99999999999998934 ) ) ;
#28 = DIRECTION ( 'NONE',  ( -0.000000000000000000, -1.000000000000000000, -0.000000000000000000 ) ) ;
#29 = AXIS2_PLACEMENT_3D ( 'NONE', #1229, #123, #318 ) ;
#30 = ORIENTED_EDGE ( 'NONE', *, *, #1064, .F. ) ;
#31 = VERTEX_POINT ( 'NONE', #253 ) ;
#32 = CARTESIAN_POINT ( 'NONE',  ( 25.00000000000000000, 3.000000000000000000, 37.49999999999999289 ) ) ;
#33 = CARTESIAN_POINT ( 'NONE',  ( -25.00000000000000000, 5.000000000000000000, 28.99999999999998934 ) ) ;
#34 =( NAMED_UNIT ( * ) PLANE_ANGLE_UNIT ( ) SI_UNIT ( $, .RADIAN. ) );
#35 = ADVANCED_FACE ( 'NONE', ( #1044 ), #247, .F. ) ;
#36 = VERTEX_POINT ( 'NONE', #653 ) ;
#37 = CYLINDRICAL_SURFACE ( 'NONE', #345, 10.00000000000000178 ) ;
#38 = ORIENTED_EDGE ( 'NONE', *, *, #228, .T. ) ;
#39 = FACE_OUTER_BOUND ( 'NONE', #273, .T. ) ;
#40 = CARTESIAN_POINT ( 'NONE',  ( 20.20000000000000284, 0.000000000000000000, -21.59999999999996589 ) ) ;
#41 = DIRECTION ( 'NONE',  ( 0.000000000000000000, -1.000000000000000000, 0.000000000000000000 ) ) ;
#42 = APPLICATION_PROTOCOL_DEFINITION ( 'draft international standard', 'automotive_design', 1998, #1112 ) ;
#43 = CARTESIAN_POINT ( 'NONE',  ( -25.00000000000000000, 1.500000000000000000, 28.99999999999998934 ) ) ;
#44 = DIRECTION ( 'NONE',  ( 0.000000000000000000, -1.000000000000000000, 0.000000000000000000 ) ) ;
#45 = EDGE_LOOP ( 'NONE', ( #419, #1108, #523, #284, #67, #127, #224, #567 ) ) ;
#46 = EDGE_CURVE ( 'NONE', #1203, #448, #244, .T. ) ;
#47 = CARTESIAN_POINT ( 'NONE',  ( 25.00000000000000000, 5.000000000000000000, 28.99999999999998934 ) ) ;
#48 = DIRECTION ( 'NONE',  ( -0.000000000000000000, -1.000000000000000000, -0.000000000000000000 ) ) ;
#49 = CARTESIAN_POINT ( 'NONE',  ( -25.00000000000000000, 5.000000000000000000, -29.00000000000000355 ) ) ;
#50 = AXIS2_PLACEMENT_3D ( 'NONE', #554, #732, #126 ) ;
#51 = ORIENTED_EDGE ( 'NONE', *, *, #745, .F. ) ;
#52 = DIRECTION ( 'NONE',  ( 0.000000000000000000, 0.000000000000000000, -1.000000000000000000 ) ) ;
#53 = LINE ( 'NONE', #362, #764 ) ;
#54 = VECTOR ( 'NONE', #728, 1000.000000000000000 ) ;
#55 = EDGE_CURVE ( 'NONE', #36, #1295, #1120, .T. ) ;
#56 = CARTESIAN_POINT ( 'NONE',  ( 35.00000000000000000, 3.000000000000000000, 28.99999999999998934 ) ) ;
#57 = LINE ( 'NONE', #860, #499 ) ;
#58 = DIRECTION ( 'NONE',  ( 0.000000000000000000, 0.000000000000000000, 1.000000000000000000 ) ) ;
#59 = AXIS2_PLACEMENT_3D ( 'NONE', #507, #204, #909 ) ;
#60 = CARTESIAN_POINT ( 'NONE',  ( 13.49999999999999822, 0.5000000000000000000, -22.33097289055185897 ) ) ;
#61 = ORIENTED_EDGE ( 'NONE', *, *, #203, .F. ) ;
#62 = SURFACE_STYLE_FILL_AREA ( #968 ) ;
#63 = LINE ( 'NONE', #873, #303 ) ;
#64 = CARTESIAN_POINT ( 'NONE',  ( 25.00000000000000000, 5.000000000000000000, 28.99999999999998934 ) ) ;
#65 = ORIENTED_EDGE ( 'NONE', *, *, #906, .T. ) ;
#66 = EDGE_CURVE ( 'NONE', #161, #350, #946, .T. ) ;
#67 = ORIENTED_EDGE ( 'NONE', *, *, #1094, .T. ) ;
#68 = CARTESIAN_POINT ( 'NONE',  ( 25.00000000000000000, 5.000000000000000000, -37.50000000000000711 ) ) ;
#69 = CARTESIAN_POINT ( 'NONE',  ( -14.99999999999999645, 0.000000000000000000, 13.59999999999999076 ) ) ;
#70 = LINE ( 'NONE', #463, #306 ) ;
#71 = EDGE_CURVE ( 'NONE', #607, #957, #452, .T. ) ;
#72 = EDGE_LOOP ( 'NONE', ( #167, #369, #339, #673 ) ) ;
#73 = VERTEX_POINT ( 'NONE', #1252 ) ;
#74 = DIRECTION ( 'NONE',  ( 0.000000000000000000, 0.000000000000000000, -1.000000000000000000 ) ) ;
#75 = EDGE_LOOP ( 'NONE', ( #818, #583, #469, #576, #1269, #1219, #95, #800 ) ) ;
#76 = DIRECTION ( 'NONE',  ( 0.000000000000000000, 0.000000000000000000, 1.000000000000000000 ) ) ;
#77 = CARTESIAN_POINT ( 'NONE',  ( 25.00000000000000000, 3.000000000000000000, -37.50000000000000711 ) ) ;
#78 = EDGE_LOOP ( 'NONE', ( #685, #484, #1234, #496 ) ) ;
#79 = AXIS2_PLACEMENT_3D ( 'NONE', #49, #1053, #1147 ) ;
#80 = VERTEX_POINT ( 'NONE', #1167 ) ;
#81 = VERTEX_POINT ( 'NONE', #645 ) ;
#82 = EDGE_CURVE ( 'NONE', #200, #212, #358, .T. ) ;
#83 = FACE_OUTER_BOUND ( 'NONE', #1084, .T. ) ;
#84 = EDGE_CURVE ( 'NONE', #81, #714, #870, .T. ) ;
#85 = VECTOR ( 'NONE', #964, 1000.000000000000000 ) ;
#86 = DIRECTION ( 'NONE',  ( 0.000000000000000000, 1.000000000000000000, 0.000000000000000000 ) ) ;
#87 = FACE_BOUND ( 'NONE', #1307, .T. ) ;
#88 = ORIENTED_EDGE ( 'NONE', *, *, #1119, .T. ) ;
#89 = VERTEX_POINT ( 'NONE', #27 ) ;
#90 = CARTESIAN_POINT ( 'NONE',  ( -25.00000000000000000, 5.000000000000000000, 28.99999999999998934 ) ) ;
#91 = VECTOR ( 'NONE', #808, 1000.000000000000000 ) ;
#92 = EDGE_CURVE ( 'NONE', #684, #689, #959, .T. ) ;
#93 = DIRECTION ( 'NONE',  ( 0.000000000000000000, 0.000000000000000000, -1.000000000000000000 ) ) ;
#94 = AXIS2_PLACEMENT_3D ( 'NONE', #258, #355, #853 ) ;
#95 = ORIENTED_EDGE ( 'NONE', *, *, #446, .T. ) ;
#96 = VECTOR ( 'NONE', #468, 1000.000000000000000 ) ;
#97 = CARTESIAN_POINT ( 'NONE',  ( 14.99999999999996447, 0.5000000000000000000, -26.80000000000000426 ) ) ;
#98 = DIRECTION ( 'NONE',  ( -0.000000000000000000, -1.000000000000000000, -0.000000000000000000 ) ) ;
#99 = EDGE_CURVE ( 'NONE', #31, #1074, #708, .T. ) ;
#100 = ORIENTED_EDGE ( 'NONE', *, *, #99, .F. ) ;
#101 = CARTESIAN_POINT ( 'NONE',  ( -13.49999999999999822, 0.5000000000000000000, 6.899999999999989697 ) ) ;
#102 = VERTEX_POINT ( 'NONE', #174 ) ;
#103 = CARTESIAN_POINT ( 'NONE',  ( -14.99999999999995737, 0.000000000000000000, 13.59999999999998899 ) ) ;
#104 = DIRECTION ( 'NONE',  ( 0.000000000000000000, 1.000000000000000000, 0.000000000000000000 ) ) ;
#105 = EDGE_CURVE ( 'NONE', #73, #374, #648, .T. ) ;
#106 = ORIENTED_EDGE ( 'NONE', *, *, #580, .T. ) ;
#107 = DIRECTION ( 'NONE',  ( -0.000000000000000000, -1.000000000000000000, -0.000000000000000000 ) ) ;
#108 = ORIENTED_EDGE ( 'NONE', *, *, #1240, .F. ) ;
#109 = CYLINDRICAL_SURFACE ( 'NONE', #112, 8.500000000000000000 ) ;
#110 = LINE ( 'NONE', #194, #628 ) ;
#111 = CIRCLE ( 'NONE', #670, 10.00000000000000178 ) ;
#112 = AXIS2_PLACEMENT_3D ( 'NONE', #1235, #332, #821 ) ;
#113 = EDGE_LOOP ( 'NONE', ( #588, #1190, #404, #402 ) ) ;
#114 = ORIENTED_EDGE ( 'NONE', *, *, #1022, .T. ) ;
#115 = VERTEX_POINT ( 'NONE', #492 ) ;
#116 = CARTESIAN_POINT ( 'NONE',  ( 34.25000000000000000, 5.000000000000000000, 28.99999999999999289 ) ) ;
#117 = EDGE_CURVE ( 'NONE', #200, #889, #1205, .T. ) ;
#118 = ORIENTED_EDGE ( 'NONE', *, *, #1035, .F. ) ;
#119 = DIRECTION ( 'NONE',  ( -1.000000000000000000, -0.000000000000000000, -0.000000000000000000 ) ) ;
#120 = LINE ( 'NONE', #826, #1019 ) ;
#121 = VERTEX_POINT ( 'NONE', #1182 ) ;
#122 = EDGE_CURVE ( 'NONE', #957, #1283, #1091, .T. ) ;
#123 = DIRECTION ( 'NONE',  ( 0.000000000000000000, 1.000000000000000000, -0.000000000000000000 ) ) ;
#124 = CARTESIAN_POINT ( 'NONE',  ( 14.99999999999999645, 0.5000000000000000000, 8.399999999999989697 ) ) ;
#125 = VERTEX_POINT ( 'NONE', #886 ) ;
#126 = DIRECTION ( 'NONE',  ( 0.000000000000000000, 0.000000000000000000, -1.000000000000000000 ) ) ;
#127 = ORIENTED_EDGE ( 'NONE', *, *, #1064, .T. ) ;
#128 = EDGE_LOOP ( 'NONE', ( #804, #1096, #1275, #272, #612, #1056, #304, #1061 ) ) ;
#129 = LINE ( 'NONE', #1021, #281 ) ;
#130 = PLANE ( 'NONE',  #312 ) ;
#131 = FACE_OUTER_BOUND ( 'NONE', #1243, .T. ) ;
#132 = ADVANCED_FACE ( 'NONE', ( #472 ), #1187, .T. ) ;
#133 = DIRECTION ( 'NONE',  ( 0.000000000000000000, 0.000000000000000000, 1.000000000000000000 ) ) ;
#134 = CARTESIAN_POINT ( 'NONE',  ( 14.99999999999999645, 0.000000000000000000, 8.399999999999989697 ) ) ;
#135 = LINE ( 'NONE', #538, #6 ) ;
#136 = ORIENTED_EDGE ( 'NONE', *, *, #117, .F. ) ;
#137 = DIRECTION ( 'NONE',  ( 0.000000000000000000, 0.000000000000000000, -1.000000000000000000 ) ) ;
#138 = APPLICATION_CONTEXT ( 'automotive_design' ) ;
#139 = ADVANCED_FACE ( 'NONE', ( #1193 ), #280, .T. ) ;
#140 = FACE_OUTER_BOUND ( 'NONE', #255, .T. ) ;
#141 = EDGE_LOOP ( 'NONE', ( #810, #1227, #1226, #181 ) ) ;
#142 = DIRECTION ( 'NONE',  ( -0.000000000000000000, -1.000000000000000000, -0.000000000000000000 ) ) ;
#143 = DIRECTION ( 'NONE',  ( 1.000000000000000000, 0.000000000000000000, -0.000000000000000000 ) ) ;
#144 = ORIENTED_EDGE ( 'NONE', *, *, #283, .F. ) ;
#145 = EDGE_CURVE ( 'NONE', #115, #992, #182, .T. ) ;
#146 = ORIENTED_EDGE ( 'NONE', *, *, #876, .F. ) ;
#147 = CYLINDRICAL_SURFACE ( 'NONE', #988, 5.199999999999999289 ) ;
#148 = DIRECTION ( 'NONE',  ( -0.000000000000000000, -1.000000000000000000, -0.000000000000000000 ) ) ;
#149 = FACE_BOUND ( 'NONE', #78, .T. ) ;
#150 = CARTESIAN_POINT ( 'NONE',  ( -35.00000000000000000, 0.000000000000000000, -29.00000000000000000 ) ) ;
#151 = CARTESIAN_POINT ( 'NONE',  ( -25.00000000000000000, 3.000000000000000000, 28.99999999999998934 ) ) ;
#152 = ORIENTED_EDGE ( 'NONE', *, *, #1151, .F. ) ;
#153 = DIRECTION ( 'NONE',  ( -0.000000000000000000, -1.000000000000000000, -0.000000000000000000 ) ) ;
#154 = DIRECTION ( 'NONE',  ( 0.000000000000000000, 1.000000000000000000, 0.000000000000000000 ) ) ;
#155 = VECTOR ( 'NONE', #1125, 1000.000000000000000 ) ;
#156 = DIRECTION ( 'NONE',  ( 0.000000000000000000, 0.000000000000000000, 1.000000000000000000 ) ) ;
#157 = CARTESIAN_POINT ( 'NONE',  ( 25.00000000000000000, 3.000000000000000000, -38.25000000000000711 ) ) ;
#158 = EDGE_CURVE ( 'NONE', #548, #924, #1046, .T. ) ;
#159 = LINE ( 'NONE', #56, #827 ) ;
#160 = ORIENTED_EDGE ( 'NONE', *, *, #422, .T. ) ;
#161 = VERTEX_POINT ( 'NONE', #69 ) ;
#162 = CARTESIAN_POINT ( 'NONE',  ( -25.00000000000000000, 3.000000000000000000, 38.99999999999999289 ) ) ;
#163 = CARTESIAN_POINT ( 'NONE',  ( 25.00000000000000000, 5.000000000000000000, -29.00000000000000355 ) ) ;
#164 = ADVANCED_FACE ( 'NONE', ( #894 ), #794, .T. ) ;
#165 = DIRECTION ( 'NONE',  ( -1.000000000000000000, 0.000000000000000000, -0.000000000000000000 ) ) ;
#166 = VERTEX_POINT ( 'NONE', #597 ) ;
#167 = ORIENTED_EDGE ( 'NONE', *, *, #789, .T. ) ;
#168 = DIRECTION ( 'NONE',  ( 0.000000000000000000, 0.000000000000000000, 1.000000000000000000 ) ) ;
#169 = ADVANCED_FACE ( 'NONE', ( #1003 ), #500, .T. ) ;
#170 = LINE ( 'NONE', #1171, #1078 ) ;
#171 = ORIENTED_EDGE ( 'NONE', *, *, #218, .T. ) ;
#172 = VECTOR ( 'NONE', #546, 1000.000000000000000 ) ;
#173 = CARTESIAN_POINT ( 'NONE',  ( 25.00000000000000000, 3.000000000000000000, 28.99999999999998934 ) ) ;
#174 = CARTESIAN_POINT ( 'NONE',  ( -25.00000000000000000, 1.500000000000000000, -37.50000000000000711 ) ) ;
#175 = CARTESIAN_POINT ( 'NONE',  ( -25.00000000000000000, 0.000000000000000000, -39.00000000000000711 ) ) ;
#176 = CARTESIAN_POINT ( 'NONE',  ( 25.00000000000000000, 3.000000000000000000, -29.00000000000000355 ) ) ;
#177 = AXIS2_PLACEMENT_3D ( 'NONE', #134, #458, #444 ) ;
#178 = EDGE_CURVE ( 'NONE', #121, #846, #412, .T. ) ;
#179 = VERTEX_POINT ( 'NONE', #855 ) ;
#180 = PRODUCT_DEFINITION_SHAPE ( 'NONE', 'NONE',  #1052 ) ;
#181 = ORIENTED_EDGE ( 'NONE', *, *, #513, .T. ) ;
#182 = LINE ( 'NONE', #383, #1276 ) ;
#183 = CARTESIAN_POINT ( 'NONE',  ( 0.000000000000000000, 0.5000000000000000000, 0.000000000000000000 ) ) ;
#184 = FACE_OUTER_BOUND ( 'NONE', #1090, .T. ) ;
#185 = ORIENTED_EDGE ( 'NONE', *, *, #1022, .F. ) ;
#186 = EDGE_LOOP ( 'NONE', ( #1254, #1085, #315, #486 ) ) ;
#187 = ADVANCED_FACE ( 'NONE', ( #1239 ), #1142, .F. ) ;
#188 = CIRCLE ( 'NONE', #429, 9.250000000000001776 ) ;
#189 = DIRECTION ( 'NONE',  ( 0.000000000000000000, 1.000000000000000000, 0.000000000000000000 ) ) ;
#190 = AXIS2_PLACEMENT_3D ( 'NONE', #529, #1075, #1083 ) ;
#191 = DIRECTION ( 'NONE',  ( 0.000000000000000000, 1.000000000000000000, -0.000000000000000000 ) ) ;
#192 = ORIENTED_EDGE ( 'NONE', *, *, #694, .T. ) ;
#193 = DIRECTION ( 'NONE',  ( 0.000000000000000000, 0.000000000000000000, 1.000000000000000000 ) ) ;
#194 = CARTESIAN_POINT ( 'NONE',  ( 35.00000000000000000, 0.000000000000000000, 28.99999999999998934 ) ) ;
#195 = VECTOR ( 'NONE', #887, 1000.000000000000000 ) ;
#196 = ADVANCED_FACE ( 'NONE', ( #140 ), #635, .F. ) ;
#197 = ORIENTED_EDGE ( 'NONE', *, *, #321, .T. ) ;
#198 = AXIS2_PLACEMENT_3D ( 'NONE', #151, #565, #238 ) ;
#199 = PRODUCT_DEFINITION_CONTEXT ( 'detailed design', #138, 'design' ) ;
#200 = VERTEX_POINT ( 'NONE', #646 ) ;
#201 = CARTESIAN_POINT ( 'NONE',  ( -14.99999999999995737, 0.000000000000000000, -26.80000000000001137 ) ) ;
#202 = LINE ( 'NONE', #207, #962 ) ;
#203 = EDGE_CURVE ( 'NONE', #219, #121, #831, .T. ) ;
#204 = DIRECTION ( 'NONE',  ( 0.000000000000000000, -1.000000000000000000, 0.000000000000000000 ) ) ;
#205 = ORIENTED_EDGE ( 'NONE', *, *, #237, .T. ) ;
#206 = ORIENTED_EDGE ( 'NONE', *, *, #997, .T. ) ;
#207 = CARTESIAN_POINT ( 'NONE',  ( -25.00000000000000000, 3.000000000000000000, 38.99999999999999289 ) ) ;
#208 = CYLINDRICAL_SURFACE ( 'NONE', #602, 10.00000000000000178 ) ;
#209 = CARTESIAN_POINT ( 'NONE',  ( 25.00000000000000000, 0.000000000000000000, -29.00000000000000355 ) ) ;
#210 = EDGE_LOOP ( 'NONE', ( #309, #830, #848, #898 ) ) ;
#211 = CARTESIAN_POINT ( 'NONE',  ( -34.25000000000000000, 5.000000000000000000, -29.00000000000000355 ) ) ;
#212 = VERTEX_POINT ( 'NONE', #300 ) ;
#213 = DIRECTION ( 'NONE',  ( 0.000000000000000000, 1.000000000000000000, -0.000000000000000000 ) ) ;
#214 = DIRECTION ( 'NONE',  ( 0.000000000000000000, 0.000000000000000000, 1.000000000000000000 ) ) ;
#215 = AXIS2_PLACEMENT_3D ( 'NONE', #914, #299, #1124 ) ;
#216 = ORIENTED_EDGE ( 'NONE', *, *, #857, .F. ) ;
#217 = DIRECTION ( 'NONE',  ( -0.000000000000000000, -1.000000000000000000, -0.000000000000000000 ) ) ;
#218 = EDGE_CURVE ( 'NONE', #448, #125, #135, .T. ) ;
#219 = VERTEX_POINT ( 'NONE', #433 ) ;
#220 = LINE ( 'NONE', #441, #54 ) ;
#221 = AXIS2_PLACEMENT_3D ( 'NONE', #1031, #730, #133 ) ;
#222 = CARTESIAN_POINT ( 'NONE',  ( -35.00000000000000000, 3.000000000000000000, -29.00000000000000000 ) ) ;
#223 = DIRECTION ( 'NONE',  ( -0.000000000000000000, -1.000000000000000000, -0.000000000000000000 ) ) ;
#224 = ORIENTED_EDGE ( 'NONE', *, *, #105, .T. ) ;
#225 = CARTESIAN_POINT ( 'NONE',  ( 35.00000000000000000, 3.000000000000000000, 28.99999999999998934 ) ) ;
#226 = ORIENTED_EDGE ( 'NONE', *, *, #681, .F. ) ;
#227 = EDGE_LOOP ( 'NONE', ( #504, #990, #1128, #806, #655, #396, #1231, #17 ) ) ;
#228 = EDGE_CURVE ( 'NONE', #408, #322, #1038, .T. ) ;
#229 = LINE ( 'NONE', #639, #584 ) ;
#230 = FACE_OUTER_BOUND ( 'NONE', #128, .T. ) ;
#231 = DIRECTION ( 'NONE',  ( -0.000000000000000000, -1.000000000000000000, -0.000000000000000000 ) ) ;
#232 = CARTESIAN_POINT ( 'NONE',  ( -14.99999999999999645, 0.5000000000000000000, 8.399999999999991473 ) ) ;
#233 = EDGE_LOOP ( 'NONE', ( #366, #987, #380, #1262 ) ) ;
#234 = CARTESIAN_POINT ( 'NONE',  ( -25.00000000000000000, 3.000000000000000000, -37.50000000000000711 ) ) ;
#235 = DIRECTION ( 'NONE',  ( 2.312964634635748873E-16, 0.000000000000000000, -1.000000000000000000 ) ) ;
#236 = FACE_OUTER_BOUND ( 'NONE', #720, .T. ) ;
#237 = EDGE_CURVE ( 'NONE', #1032, #1295, #1253, .T. ) ;
#238 = DIRECTION ( 'NONE',  ( 0.000000000000000000, 0.000000000000000000, 1.000000000000000000 ) ) ;
#239 = DIRECTION ( 'NONE',  ( -1.000000000000000000, 0.000000000000000000, 0.000000000000000000 ) ) ;
#240 = ORIENTED_EDGE ( 'NONE', *, *, #11, .T. ) ;
#241 = PRESENTATION_LAYER_ASSIGNMENT (  '', '', ( #920 ) ) ;
#242 = CARTESIAN_POINT ( 'NONE',  ( -14.99999999999995737, 0.5000000000000000000, -26.80000000000001137 ) ) ;
#243 = CARTESIAN_POINT ( 'NONE',  ( 34.25000000000000000, 5.000000000000000000, -29.00000000000000355 ) ) ;
#244 = CIRCLE ( 'NONE', #79, 8.500000000000000000 ) ;
#245 = FACE_OUTER_BOUND ( 'NONE', #695, .T. ) ;
#246 = ADVANCED_FACE ( 'NONE', ( #933 ), #37, .T. ) ;
#247 = PLANE ( 'NONE',  #479 ) ;
#248 = ORIENTED_EDGE ( 'NONE', *, *, #22, .T. ) ;
#249 = DIRECTION ( 'NONE',  ( 1.000000000000000000, 0.000000000000000000, 0.000000000000000000 ) ) ;
#250 = LINE ( 'NONE', #1242, #986 ) ;
#251 = AXIS2_PLACEMENT_3D ( 'NONE', #275, #474, #165 ) ;
#252 = CARTESIAN_POINT ( 'NONE',  ( 13.49999999999999822, 0.5000000000000000000, 6.899999999999990585 ) ) ;
#253 = CARTESIAN_POINT ( 'NONE',  ( -25.00000000000000000, 3.000000000000000000, -38.25000000000000711 ) ) ;
#254 = VECTOR ( 'NONE', #497, 1000.000000000000000 ) ;
#255 = EDGE_LOOP ( 'NONE', ( #784, #146, #61, #614 ) ) ;
#256 = LINE ( 'NONE', #872, #883 ) ;
#257 = ADVANCED_FACE ( 'NONE', ( #627 ), #1308, .T. ) ;
#258 = CARTESIAN_POINT ( 'NONE',  ( -34.25000000000000000, 5.000000000000000000, -29.00000000000000355 ) ) ;
#259 = CARTESIAN_POINT ( 'NONE',  ( -25.00000000000000000, 3.000000000000000000, 38.99999999999999289 ) ) ;
#260 = EDGE_LOOP ( 'NONE', ( #248, #709, #1246, #192 ) ) ;
#261 = ORIENTED_EDGE ( 'NONE', *, *, #1274, .T. ) ;
#262 = EDGE_CURVE ( 'NONE', #1028, #1047, #23, .T. ) ;
#263 = VECTOR ( 'NONE', #738, 1000.000000000000000 ) ;
#264 = FACE_OUTER_BOUND ( 'NONE', #8, .T. ) ;
#265 = DIRECTION ( 'NONE',  ( 1.000000000000000000, 0.000000000000000000, -0.000000000000000000 ) ) ;
#266 = ORIENTED_EDGE ( 'NONE', *, *, #814, .T. ) ;
#267 = ORIENTED_EDGE ( 'NONE', *, *, #745, .T. ) ;
#268 = EDGE_CURVE ( 'NONE', #689, #599, #111, .T. ) ;
#269 = DIRECTION ( 'NONE',  ( 0.000000000000000000, 1.000000000000000000, 0.000000000000000000 ) ) ;
#270 = CARTESIAN_POINT ( 'NONE',  ( -20.19999999999999574, 0.000000000000000000, 8.399999999999952394 ) ) ;
#271 = CARTESIAN_POINT ( 'NONE',  ( 25.00000000000000000, 5.000000000000000000, 28.99999999999998934 ) ) ;
#272 = ORIENTED_EDGE ( 'NONE', *, *, #1240, .T. ) ;
#273 = EDGE_LOOP ( 'NONE', ( #1160, #51, #261, #351 ) ) ;
#274 = ADVANCED_FACE ( 'NONE', ( #725 ), #847, .F. ) ;
#275 = CARTESIAN_POINT ( 'NONE',  ( -25.00000000000000000, 5.000000000000000000, 38.24999999999999289 ) ) ;
#276 = ORIENTED_EDGE ( 'NONE', *, *, #401, .F. ) ;
#277 = ORIENTED_EDGE ( 'NONE', *, *, #513, .F. ) ;
#278 = VECTOR ( 'NONE', #1200, 1000.000000000000000 ) ;
#279 = ORIENTED_EDGE ( 'NONE', *, *, #314, .F. ) ;
#280 = CYLINDRICAL_SURFACE ( 'NONE', #1025, 9.250000000000001776 ) ;
#281 = VECTOR ( 'NONE', #532, 1000.000000000000000 ) ;
#282 = CYLINDRICAL_SURFACE ( 'NONE', #903, 8.500000000000000000 ) ;
#283 = EDGE_CURVE ( 'NONE', #1203, #102, #1154, .T. ) ;
#284 = ORIENTED_EDGE ( 'NONE', *, *, #937, .T. ) ;
#285 = AXIS2_PLACEMENT_3D ( 'NONE', #16, #1250, #137 ) ;
#286 = ORIENTED_EDGE ( 'NONE', *, *, #568, .T. ) ;
#287 = ORIENTED_EDGE ( 'NONE', *, *, #262, .F. ) ;
#288 = CARTESIAN_POINT ( 'NONE',  ( -20.19999999999999574, 0.5000000000000000000, -21.59999999999997655 ) ) ;
#289 = CARTESIAN_POINT ( 'NONE',  ( 33.50000000000000000, 3.000000000000000000, 28.99999999999998934 ) ) ;
#290 = DIRECTION ( 'NONE',  ( -0.000000000000000000, -0.000000000000000000, -1.000000000000000000 ) ) ;
#291 = VERTEX_POINT ( 'NONE', #97 ) ;
#292 = CARTESIAN_POINT ( 'NONE',  ( -20.19999999999999574, 0.000000000000000000, -21.59999999999997655 ) ) ;
#293 = PLANE ( 'NONE',  #215 ) ;
#294 = EDGE_CURVE ( 'NONE', #1241, #1283, #1010, .T. ) ;
#295 = CARTESIAN_POINT ( 'NONE',  ( -25.00000000000000000, 0.000000000000000000, 28.99999999999998934 ) ) ;
#296 = DIRECTION ( 'NONE',  ( -0.000000000000000000, -1.000000000000000000, -0.000000000000000000 ) ) ;
#297 = ORIENTED_EDGE ( 'NONE', *, *, #891, .T. ) ;
#298 = EDGE_CURVE ( 'NONE', #714, #1156, #1210, .T. ) ;
#299 = DIRECTION ( 'NONE',  ( 1.000000000000000000, -0.000000000000000000, 0.000000000000000000 ) ) ;
#300 = CARTESIAN_POINT ( 'NONE',  ( 33.50000000000000000, 5.000000000000000000, -29.00000000000000355 ) ) ;
#301 = DIRECTION ( 'NONE',  ( 0.000000000000000000, -1.000000000000000000, 0.000000000000000000 ) ) ;
#302 = DIRECTION ( 'NONE',  ( 0.000000000000000000, 0.000000000000000000, -1.000000000000000000 ) ) ;
#303 = VECTOR ( 'NONE', #1271, 1000.000000000000000 ) ;
#304 = ORIENTED_EDGE ( 'NONE', *, *, #769, .T. ) ;
#305 = AXIS2_PLACEMENT_3D ( 'NONE', #328, #189, #777 ) ;
#306 = VECTOR ( 'NONE', #290, 1000.000000000000000 ) ;
#307 = ADVANCED_FACE ( 'NONE', ( #149, #963 ), #1188, .F. ) ;
#308 = DIRECTION ( 'NONE',  ( 0.000000000000000000, 0.000000000000000000, -1.000000000000000000 ) ) ;
#309 = ORIENTED_EDGE ( 'NONE', *, *, #262, .T. ) ;
#310 = ORIENTED_EDGE ( 'NONE', *, *, #11, .F. ) ;
#311 = CARTESIAN_POINT ( 'NONE',  ( -33.50000000000000000, 5.000000000000000000, -29.00000000000000355 ) ) ;
#312 = AXIS2_PLACEMENT_3D ( 'NONE', #47, #354, #1256 ) ;
#313 = DIRECTION ( 'NONE',  ( 0.000000000000000000, 0.000000000000000000, -1.000000000000000000 ) ) ;
#314 = EDGE_CURVE ( 'NONE', #1047, #893, #566, .T. ) ;
#315 = ORIENTED_EDGE ( 'NONE', *, *, #971, .F. ) ;
#316 = ORIENTED_EDGE ( 'NONE', *, *, #1119, .F. ) ;
#317 = DIRECTION ( 'NONE',  ( 1.000000000000000000, -0.000000000000000000, 0.000000000000000000 ) ) ;
#318 = DIRECTION ( 'NONE',  ( 0.000000000000000000, 0.000000000000000000, -1.000000000000000000 ) ) ;
#319 = CYLINDRICAL_SURFACE ( 'NONE', #796, 10.00000000000000178 ) ;
#320 = VECTOR ( 'NONE', #480, 1000.000000000000000 ) ;
#321 = EDGE_CURVE ( 'NONE', #102, #125, #1007, .T. ) ;
#322 = VERTEX_POINT ( 'NONE', #175 ) ;
#323 = DIRECTION ( 'NONE',  ( 0.000000000000000000, 0.000000000000000000, 1.000000000000000000 ) ) ;
#324 = FACE_OUTER_BOUND ( 'NONE', #1122, .T. ) ;
#325 = CIRCLE ( 'NONE', #221, 8.500000000000000000 ) ;
#326 = AXIS2_PLACEMENT_3D ( 'NONE', #1165, #1267, #265 ) ;
#327 = CARTESIAN_POINT ( 'NONE',  ( 35.00000000000000000, 3.000000000000000000, 28.99999999999998934 ) ) ;
#328 = CARTESIAN_POINT ( 'NONE',  ( -25.00000000000000000, 3.000000000000000000, -29.00000000000000355 ) ) ;
#329 = VERTEX_POINT ( 'NONE', #1113 ) ;
#330 = DIRECTION ( 'NONE',  ( 0.000000000000000000, 0.000000000000000000, 1.000000000000000000 ) ) ;
#331 = ORIENTED_EDGE ( 'NONE', *, *, #158, .F. ) ;
#332 = DIRECTION ( 'NONE',  ( -0.000000000000000000, -1.000000000000000000, -0.000000000000000000 ) ) ;
#333 = EDGE_CURVE ( 'NONE', #1295, #1268, #788, .T. ) ;
#334 = DIRECTION ( 'NONE',  ( -1.000000000000000000, 0.000000000000000000, 0.000000000000000000 ) ) ;
#335 = FACE_OUTER_BOUND ( 'NONE', #1185, .T. ) ;
#336 = DIRECTION ( 'NONE',  ( 0.000000000000000000, 0.000000000000000000, 1.000000000000000000 ) ) ;
#337 = CARTESIAN_POINT ( 'NONE',  ( -33.50000000000000000, 3.000000000000000000, 28.99999999999998934 ) ) ;
#338 = CARTESIAN_POINT ( 'NONE',  ( -20.19999999999999574, 0.5000000000000000000, -21.59999999999997300 ) ) ;
#339 = ORIENTED_EDGE ( 'NONE', *, *, #977, .F. ) ;
#340 = ORIENTED_EDGE ( 'NONE', *, *, #965, .T. ) ;
#341 = CARTESIAN_POINT ( 'NONE',  ( -25.00000000000000000, 5.000000000000000000, -38.25000000000000711 ) ) ;
#342 = DIRECTION ( 'NONE',  ( -0.000000000000000000, -1.000000000000000000, -0.000000000000000000 ) ) ;
#343 = EDGE_CURVE ( 'NONE', #1055, #31, #682, .T. ) ;
#344 = LINE ( 'NONE', #657, #263 ) ;
#345 = AXIS2_PLACEMENT_3D ( 'NONE', #1244, #654, #704 ) ;
#346 = ORIENTED_EDGE ( 'NONE', *, *, #895, .F. ) ;
#347 = AXIS2_PLACEMENT_3D ( 'NONE', #1228, #317, #721 ) ;
#348 = DIRECTION ( 'NONE',  ( -0.000000000000000000, -1.000000000000000000, -0.000000000000000000 ) ) ;
#349 = FACE_OUTER_BOUND ( 'NONE', #1215, .T. ) ;
#350 = VERTEX_POINT ( 'NONE', #270 ) ;
#351 = ORIENTED_EDGE ( 'NONE', *, *, #1006, .T. ) ;
#352 = LINE ( 'NONE', #752, #1213 ) ;
#353 = VECTOR ( 'NONE', #1169, 1000.000000000000000 ) ;
#354 = DIRECTION ( 'NONE',  ( 0.000000000000000000, 1.000000000000000000, 0.000000000000000000 ) ) ;
#355 = DIRECTION ( 'NONE',  ( 1.000000000000000000, 0.000000000000000000, 0.000000000000000000 ) ) ;
#356 = VECTOR ( 'NONE', #296, 1000.000000000000000 ) ;
#357 = DIRECTION ( 'NONE',  ( 0.000000000000000000, 0.000000000000000000, -1.000000000000000000 ) ) ;
#358 = LINE ( 'NONE', #560, #817 ) ;
#359 = EDGE_CURVE ( 'NONE', #1241, #291, #1087, .T. ) ;
#360 = ORIENTED_EDGE ( 'NONE', *, *, #619, .F. ) ;
#361 = LINE ( 'NONE', #662, #1050 ) ;
#362 = CARTESIAN_POINT ( 'NONE',  ( 25.00000000000000000, 5.000000000000000000, -37.50000000000000711 ) ) ;
#363 = PLANE ( 'NONE',  #477 ) ;
#364 = DIRECTION ( 'NONE',  ( 0.000000000000000000, -1.000000000000000000, -0.000000000000000000 ) ) ;
#365 = ADVANCED_FACE ( 'NONE', ( #423, #131 ), #4, .T. ) ;
#366 = ORIENTED_EDGE ( 'NONE', *, *, #401, .T. ) ;
#367 = AXIS2_PLACEMENT_3D ( 'NONE', #271, #569, #579 ) ;
#368 = VECTOR ( 'NONE', #1186, 1000.000000000000000 ) ;
#369 = ORIENTED_EDGE ( 'NONE', *, *, #1133, .F. ) ;
#370 = LINE ( 'NONE', #542, #815 ) ;
#371 = PLANE ( 'NONE',  #326 ) ;
#372 = VERTEX_POINT ( 'NONE', #908 ) ;
#373 = VECTOR ( 'NONE', #603, 1000.000000000000000 ) ;
#374 = VERTEX_POINT ( 'NONE', #222 ) ;
#375 = CIRCLE ( 'NONE', #1072, 5.200000000000000178 ) ;
#376 = VECTOR ( 'NONE', #748, 1000.000000000000000 ) ;
#377 = DIRECTION ( 'NONE',  ( 0.000000000000000000, 0.000000000000000000, -1.000000000000000000 ) ) ;
#378 = CARTESIAN_POINT ( 'NONE',  ( 34.25000000000000000, 5.000000000000000000, 28.99999999999999289 ) ) ;
#379 = VECTOR ( 'NONE', #98, 1000.000000000000000 ) ;
#380 = ORIENTED_EDGE ( 'NONE', *, *, #105, .F. ) ;
#381 = CARTESIAN_POINT ( 'NONE',  ( 13.49999999999999822, 1.500000000000000000, 6.899999999999990585 ) ) ;
#382 = EDGE_CURVE ( 'NONE', #786, #161, #711, .T. ) ;
#383 = CARTESIAN_POINT ( 'NONE',  ( -25.00000000000000000, 3.000000000000000000, 37.49999999999999289 ) ) ;
#384 = DIRECTION ( 'NONE',  ( 0.000000000000000000, 0.000000000000000000, 1.000000000000000000 ) ) ;
#385 = VECTOR ( 'NONE', #1148, 1000.000000000000000 ) ;
#386 = ORIENTED_EDGE ( 'NONE', *, *, #851, .T. ) ;
#387 = ORIENTED_EDGE ( 'NONE', *, *, #619, .T. ) ;
#388 = DIRECTION ( 'NONE',  ( 0.000000000000000000, 0.000000000000000000, 1.000000000000000000 ) ) ;
#389 = FACE_OUTER_BOUND ( 'NONE', #1294, .T. ) ;
#390 = EDGE_LOOP ( 'NONE', ( #340, #638, #935, #1292 ) ) ;
#391 = ORIENTED_EDGE ( 'NONE', *, *, #937, .F. ) ;
#392 = CARTESIAN_POINT ( 'NONE',  ( 20.19999999999999574, 0.5000000000000000000, 8.399999999999952394 ) ) ;
#393 = AXIS2_PLACEMENT_3D ( 'NONE', #716, #213, #525 ) ;
#394 = VECTOR ( 'NONE', #624, 1000.000000000000000 ) ;
#395 = DIRECTION ( 'NONE',  ( 0.000000000000000000, 0.000000000000000000, -1.000000000000000000 ) ) ;
#396 = ORIENTED_EDGE ( 'NONE', *, *, #382, .F. ) ;
#397 = ADVANCED_FACE ( 'NONE', ( #616 ), #208, .T. ) ;
#398 = DIRECTION ( 'NONE',  ( 0.000000000000000000, 0.000000000000000000, 1.000000000000000000 ) ) ;
#399 = DIRECTION ( 'NONE',  ( 0.000000000000000000, -0.000000000000000000, 1.000000000000000000 ) ) ;
#400 = CARTESIAN_POINT ( 'NONE',  ( -34.25000000000000000, 5.000000000000000000, -29.00000000000000355 ) ) ;
#401 = EDGE_CURVE ( 'NONE', #322, #1028, #723, .T. ) ;
#402 = ORIENTED_EDGE ( 'NONE', *, *, #524, .T. ) ;
#403 = LINE ( 'NONE', #381, #368 ) ;
#404 = ORIENTED_EDGE ( 'NONE', *, *, #409, .F. ) ;
#405 = CARTESIAN_POINT ( 'NONE',  ( -14.99999999999995737, 0.5000000000000000000, -26.80000000000001137 ) ) ;
#406 = CARTESIAN_POINT ( 'NONE',  ( -25.00000000000000000, 3.000000000000000000, -29.00000000000000355 ) ) ;
#407 = DIRECTION ( 'NONE',  ( 0.000000000000000000, 0.000000000000000000, -1.000000000000000000 ) ) ;
#408 = VERTEX_POINT ( 'NONE', #930 ) ;
#409 = EDGE_CURVE ( 'NONE', #89, #577, #899, .T. ) ;
#410 = LINE ( 'NONE', #918, #592 ) ;
#411 = DIRECTION ( 'NONE',  ( 1.000000000000000000, 0.000000000000000000, 0.000000000000000000 ) ) ;
#412 = CIRCLE ( 'NONE', #811, 5.200000000000000178 ) ;
#413 = CIRCLE ( 'NONE', #1157, 9.250000000000001776 ) ;
#414 = CYLINDRICAL_SURFACE ( 'NONE', #1140, 5.199999999999996625 ) ;
#415 = MECHANICAL_DESIGN_GEOMETRIC_PRESENTATION_REPRESENTATION (  '', ( #920 ), #520 ) ;
#416 = EDGE_LOOP ( 'NONE', ( #226, #1180, #386, #1123 ) ) ;
#417 = CLOSED_SHELL ( 'NONE', ( #1247, #164, #633, #611, #1296, #667, #1088, #706, #805, #659, #132, #1026, #1012, #467, #139, #1079, #257, #836, #246, #187, #1293, #1266, #397, #1251, #169, #722, #26, #1282, #35, #650, #431, #307, #365, #1146, #785, #1260, #274, #544, #196, #780, #501 ) ) ;
#418 = AXIS2_PLACEMENT_3D ( 'NONE', #1132, #1139, #632 ) ;
#419 = ORIENTED_EDGE ( 'NONE', *, *, #409, .T. ) ;
#420 = CARTESIAN_POINT ( 'NONE',  ( -13.49999999999999822, 0.5000000000000000000, 6.899999999999989697 ) ) ;
#421 = CARTESIAN_POINT ( 'NONE',  ( -25.00000000000000000, 3.000000000000000000, 37.49999999999999289 ) ) ;
#422 = EDGE_CURVE ( 'NONE', #166, #661, #1138, .T. ) ;
#423 = FACE_BOUND ( 'NONE', #227, .T. ) ;
#424 = DIRECTION ( 'NONE',  ( 0.000000000000000000, -1.000000000000000000, 0.000000000000000000 ) ) ;
#425 = ORIENTED_EDGE ( 'NONE', *, *, #1094, .F. ) ;
#426 = ORIENTED_EDGE ( 'NONE', *, *, #1018, .T. ) ;
#427 = CARTESIAN_POINT ( 'NONE',  ( 34.25000000000000000, 3.000000000000000000, 28.99999999999999289 ) ) ;
#428 = DIRECTION ( 'NONE',  ( -1.000000000000000000, 0.000000000000000000, -0.000000000000000000 ) ) ;
#429 = AXIS2_PLACEMENT_3D ( 'NONE', #715, #1129, #912 ) ;
#430 = AXIS2_PLACEMENT_3D ( 'NONE', #729, #1070, #936 ) ;
#431 = ADVANCED_FACE ( 'NONE', ( #335 ), #953, .F. ) ;
#432 = VERTEX_POINT ( 'NONE', #243 ) ;
#433 = CARTESIAN_POINT ( 'NONE',  ( 14.99999999999996092, 0.5000000000000000000, 13.59999999999998899 ) ) ;
#434 = DIRECTION ( 'NONE',  ( 0.000000000000000000, 0.000000000000000000, 1.000000000000000000 ) ) ;
#435 = DIRECTION ( 'NONE',  ( 0.000000000000000000, 1.000000000000000000, -0.000000000000000000 ) ) ;
#436 = VECTOR ( 'NONE', #907, 1000.000000000000000 ) ;
#437 = CARTESIAN_POINT ( 'NONE',  ( -14.99999999999995737, 0.000000000000000000, -26.80000000000001137 ) ) ;
#438 = CARTESIAN_POINT ( 'NONE',  ( 14.99999999999996447, 0.5000000000000000000, -26.80000000000000426 ) ) ;
#439 = CARTESIAN_POINT ( 'NONE',  ( 13.49999999999999822, 0.5000000000000000000, 6.899999999999990585 ) ) ;
#440 = ORIENTED_EDGE ( 'NONE', *, *, #117, .T. ) ;
#441 = CARTESIAN_POINT ( 'NONE',  ( -25.00000000000000000, 1.500000000000000000, 37.49999999999999289 ) ) ;
#442 = VECTOR ( 'NONE', #803, 1000.000000000000000 ) ;
#443 = FACE_OUTER_BOUND ( 'NONE', #1014, .T. ) ;
#444 = DIRECTION ( 'NONE',  ( 0.000000000000000000, 0.000000000000000000, 1.000000000000000000 ) ) ;
#445 = CARTESIAN_POINT ( 'NONE',  ( 25.00000000000000000, 0.000000000000000000, 28.99999999999998934 ) ) ;
#446 = EDGE_CURVE ( 'NONE', #607, #1241, #375, .T. ) ;
#447 = EDGE_LOOP ( 'NONE', ( #1212, #136, #1082, #267 ) ) ;
#448 = VERTEX_POINT ( 'NONE', #663 ) ;
#449 = LINE ( 'NONE', #341, #1195 ) ;
#450 = LINE ( 'NONE', #1258, #672 ) ;
#451 = PLANE ( 'NONE',  #867 ) ;
#452 = LINE ( 'NONE', #1059, #549 ) ;
#453 = DIRECTION ( 'NONE',  ( 0.000000000000000000, 0.000000000000000000, -1.000000000000000000 ) ) ;
#454 = ORIENTED_EDGE ( 'NONE', *, *, #574, .T. ) ;
#455 = CARTESIAN_POINT ( 'NONE',  ( -13.49999999999999822, 0.5000000000000000000, -22.33097289055185897 ) ) ;
#456 = AXIS2_PLACEMENT_3D ( 'NONE', #1054, #839, #505 ) ;
#457 = EDGE_CURVE ( 'NONE', #1299, #329, #57, .T. ) ;
#458 = DIRECTION ( 'NONE',  ( 0.000000000000000000, -1.000000000000000000, 0.000000000000000000 ) ) ;
#459 = VERTEX_POINT ( 'NONE', #961 ) ;
#460 = CARTESIAN_POINT ( 'NONE',  ( -25.00000000000000000, 3.000000000000000000, -39.00000000000000711 ) ) ;
#461 = PLANE ( 'NONE',  #94 ) ;
#462 = EDGE_CURVE ( 'NONE', #219, #786, #450, .T. ) ;
#463 = CARTESIAN_POINT ( 'NONE',  ( -20.19999999999999574, 0.000000000000000000, -21.59999999999997300 ) ) ;
#464 = FACE_BOUND ( 'NONE', #555, .T. ) ;
#465 = ORIENTED_EDGE ( 'NONE', *, *, #485, .T. ) ;
#466 = SURFACE_SIDE_STYLE ('',( #62 ) ) ;
#467 = ADVANCED_FACE ( 'NONE', ( #236 ), #461, .F. ) ;
#468 = DIRECTION ( 'NONE',  ( 0.000000000000000000, 0.000000000000000000, 1.000000000000000000 ) ) ;
#469 = ORIENTED_EDGE ( 'NONE', *, *, #1305, .T. ) ;
#470 = VECTOR ( 'NONE', #812, 1000.000000000000000 ) ;
#471 = ORIENTED_EDGE ( 'NONE', *, *, #906, .F. ) ;
#472 = FACE_OUTER_BOUND ( 'NONE', #21, .T. ) ;
#473 = DIRECTION ( 'NONE',  ( 0.000000000000000000, -1.000000000000000000, 0.000000000000000000 ) ) ;
#474 = DIRECTION ( 'NONE',  ( 0.000000000000000000, 0.000000000000000000, -1.000000000000000000 ) ) ;
#475 = EDGE_CURVE ( 'NONE', #1027, #329, #868, .T. ) ;
#476 = ORIENTED_EDGE ( 'NONE', *, *, #1173, .F. ) ;
#477 = AXIS2_PLACEMENT_3D ( 'NONE', #1049, #743, #1071 ) ;
#478 = DIRECTION ( 'NONE',  ( 0.000000000000000000, -1.000000000000000000, 0.000000000000000000 ) ) ;
#479 = AXIS2_PLACEMENT_3D ( 'NONE', #1153, #1261, #854 ) ;
#480 = DIRECTION ( 'NONE',  ( -1.000000000000000000, 0.000000000000000000, 0.000000000000000000 ) ) ;
#481 = FACE_OUTER_BOUND ( 'NONE', #483, .T. ) ;
#482 = AXIS2_PLACEMENT_3D ( 'NONE', #176, #892, #357 ) ;
#483 = EDGE_LOOP ( 'NONE', ( #739, #310, #106, #539 ) ) ;
#484 = ORIENTED_EDGE ( 'NONE', *, *, #895, .T. ) ;
#485 = EDGE_CURVE ( 'NONE', #1074, #36, #344, .T. ) ;
#486 = ORIENTED_EDGE ( 'NONE', *, *, #92, .T. ) ;
#487 = DIRECTION ( 'NONE',  ( 0.000000000000000000, 0.000000000000000000, -1.000000000000000000 ) ) ;
#488 = DIRECTION ( 'NONE',  ( 0.000000000000000000, 0.000000000000000000, -1.000000000000000000 ) ) ;
#489 = ORIENTED_EDGE ( 'NONE', *, *, #910, .F. ) ;
#490 = VERTEX_POINT ( 'NONE', #1152 ) ;
#491 = AXIS2_PLACEMENT_3D ( 'NONE', #737, #342, #852 ) ;
#492 = CARTESIAN_POINT ( 'NONE',  ( -25.00000000000000000, 5.000000000000000000, 37.49999999999999289 ) ) ;
#493 = FACE_OUTER_BOUND ( 'NONE', #581, .T. ) ;
#494 = ORIENTED_EDGE ( 'NONE', *, *, #997, .F. ) ;
#495 = EDGE_CURVE ( 'NONE', #432, #1179, #649, .T. ) ;
#496 = ORIENTED_EDGE ( 'NONE', *, *, #947, .T. ) ;
#497 = DIRECTION ( 'NONE',  ( -1.000000000000000000, 0.000000000000000000, 0.000000000000000000 ) ) ;
#498 = CARTESIAN_POINT ( 'NONE',  ( -20.19999999999999574, 0.5000000000000000000, -21.59999999999997300 ) ) ;
#499 = VECTOR ( 'NONE', #675, 1000.000000000000000 ) ;
#500 = CYLINDRICAL_SURFACE ( 'NONE', #859, 10.00000000000000178 ) ;
#501 = ADVANCED_FACE ( 'NONE', ( #264 ), #363, .F. ) ;
#502 = CARTESIAN_POINT ( 'NONE',  ( 34.25000000000000000, 3.000000000000000000, -29.00000000000000355 ) ) ;
#503 = PRODUCT_DEFINITION_FORMATION_WITH_SPECIFIED_SOURCE ( 'ANY', '', #787, .NOT_KNOWN. ) ;
#504 = ORIENTED_EDGE ( 'NONE', *, *, #789, .F. ) ;
#505 = DIRECTION ( 'NONE',  ( 1.000000000000000000, 0.000000000000000000, -0.000000000000000000 ) ) ;
#506 = DIRECTION ( 'NONE',  ( 0.000000000000000000, 1.000000000000000000, 0.000000000000000000 ) ) ;
#507 = CARTESIAN_POINT ( 'NONE',  ( -25.00000000000000000, 3.000000000000000000, 28.99999999999998934 ) ) ;
#508 = EDGE_CURVE ( 'NONE', #1273, #599, #970, .T. ) ;
#509 = ORIENTED_EDGE ( 'NONE', *, *, #537, .T. ) ;
#510 = DIRECTION ( 'NONE',  ( 1.000000000000000000, 0.000000000000000000, 3.212450881438532364E-17 ) ) ;
#511 = CYLINDRICAL_SURFACE ( 'NONE', #14, 5.200000000000000178 ) ;
#512 = EDGE_LOOP ( 'NONE', ( #1008, #1, #636, #1024, #1149, #913, #647, #494 ) ) ;
#513 = EDGE_CURVE ( 'NONE', #459, #36, #63, .T. ) ;
#514 = DIRECTION ( 'NONE',  ( 0.000000000000000000, 1.000000000000000000, -0.000000000000000000 ) ) ;
#515 = ORIENTED_EDGE ( 'NONE', *, *, #475, .F. ) ;
#516 = CARTESIAN_POINT ( 'NONE',  ( 33.50000000000000000, 3.000000000000000000, -29.00000000000000355 ) ) ;
#517 = AXIS2_PLACEMENT_3D ( 'NONE', #573, #86, #976 ) ;
#518 = VECTOR ( 'NONE', #942, 1000.000000000000000 ) ;
#519 = LINE ( 'NONE', #610, #1011 ) ;
#520 =( GEOMETRIC_REPRESENTATION_CONTEXT ( 3 ) GLOBAL_UNCERTAINTY_ASSIGNED_CONTEXT ( ( #1220 ) ) GLOBAL_UNIT_ASSIGNED_CONTEXT ( ( #993, #858, #1270 ) ) REPRESENTATION_CONTEXT ( 'NONE', 'WORKASPACE' ) );
#521 = ORIENTED_EDGE ( 'NONE', *, *, #876, .T. ) ;
#522 = CIRCLE ( 'NONE', #1301, 10.00000000000000178 ) ;
#523 = ORIENTED_EDGE ( 'NONE', *, *, #971, .T. ) ;
#524 = EDGE_CURVE ( 'NONE', #89, #1047, #370, .T. ) ;
#525 = DIRECTION ( 'NONE',  ( 0.000000000000000000, 0.000000000000000000, -1.000000000000000000 ) ) ;
#526 = AXIS2_PLACEMENT_3D ( 'NONE', #888, #671, #1272 ) ;
#527 = VERTEX_POINT ( 'NONE', #944 ) ;
#528 = DIRECTION ( 'NONE',  ( 0.000000000000000000, 0.000000000000000000, 1.000000000000000000 ) ) ;
#529 = CARTESIAN_POINT ( 'NONE',  ( -25.00000000000000000, 3.000000000000000000, 38.99999999999999289 ) ) ;
#530 = LINE ( 'NONE', #1136, #1224 ) ;
#531 = ORIENTED_EDGE ( 'NONE', *, *, #1043, .T. ) ;
#532 = DIRECTION ( 'NONE',  ( 0.000000000000000000, 1.000000000000000000, 0.000000000000000000 ) ) ;
#533 = VECTOR ( 'NONE', #1189, 1000.000000000000000 ) ;
#534 = DIRECTION ( 'NONE',  ( 0.000000000000000000, -0.000000000000000000, -1.000000000000000000 ) ) ;
#535 = APPLICATION_PROTOCOL_DEFINITION ( 'draft international standard', 'automotive_design', 1998, #138 ) ;
#536 = LINE ( 'NONE', #337, #1159 ) ;
#537 = EDGE_CURVE ( 'NONE', #924, #1074, #556, .T. ) ;
#538 = CARTESIAN_POINT ( 'NONE',  ( -33.50000000000000000, 3.000000000000000000, -29.00000000000000355 ) ) ;
#539 = ORIENTED_EDGE ( 'NONE', *, *, #145, .T. ) ;
#540 = CARTESIAN_POINT ( 'NONE',  ( -25.00000000000000000, 5.000000000000000000, 38.24999999999999289 ) ) ;
#541 = VECTOR ( 'NONE', #348, 1000.000000000000000 ) ;
#542 = CARTESIAN_POINT ( 'NONE',  ( -35.00000000000000000, 3.000000000000000000, 28.99999999999998934 ) ) ;
#543 = PLANE ( 'NONE',  #418 ) ;
#544 = ADVANCED_FACE ( 'NONE', ( #1263 ), #147, .F. ) ;
#545 = ORIENTED_EDGE ( 'NONE', *, *, #1166, .T. ) ;
#546 = DIRECTION ( 'NONE',  ( -1.000000000000000000, -0.000000000000000000, -0.000000000000000000 ) ) ;
#547 = ORIENTED_EDGE ( 'NONE', *, *, #457, .F. ) ;
#548 = VERTEX_POINT ( 'NONE', #865 ) ;
#549 = VECTOR ( 'NONE', #966, 1000.000000000000000 ) ;
#550 = LINE ( 'NONE', #40, #664 ) ;
#551 = CIRCLE ( 'NONE', #674, 8.500000000000000000 ) ;
#552 = EDGE_CURVE ( 'NONE', #73, #322, #760, .T. ) ;
#553 = FACE_OUTER_BOUND ( 'NONE', #939, .T. ) ;
#554 = CARTESIAN_POINT ( 'NONE',  ( 25.00000000000000000, 5.000000000000000000, 28.99999999999998934 ) ) ;
#555 = EDGE_LOOP ( 'NONE', ( #547, #1286, #973, #660 ) ) ;
#556 = LINE ( 'NONE', #562, #747 ) ;
#557 = DIRECTION ( 'NONE',  ( 0.000000000000000000, 0.000000000000000000, -1.000000000000000000 ) ) ;
#558 = EDGE_CURVE ( 'NONE', #527, #102, #352, .T. ) ;
#559 = CARTESIAN_POINT ( 'NONE',  ( 13.49999999999999822, 0.5000000000000000000, 6.899999999999990585 ) ) ;
#560 = CARTESIAN_POINT ( 'NONE',  ( 33.50000000000000000, 5.000000000000000000, 28.99999999999998934 ) ) ;
#561 = ORIENTED_EDGE ( 'NONE', *, *, #99, .T. ) ;
#562 = CARTESIAN_POINT ( 'NONE',  ( -34.25000000000000000, 5.000000000000000000, -29.00000000000000355 ) ) ;
#563 = EDGE_CURVE ( 'NONE', #893, #689, #361, .T. ) ;
#564 = DIRECTION ( 'NONE',  ( 0.000000000000000000, 1.000000000000000000, 0.000000000000000000 ) ) ;
#565 = DIRECTION ( 'NONE',  ( 0.000000000000000000, 1.000000000000000000, 0.000000000000000000 ) ) ;
#566 = CIRCLE ( 'NONE', #772, 10.00000000000000178 ) ;
#567 = ORIENTED_EDGE ( 'NONE', *, *, #756, .T. ) ;
#568 = EDGE_CURVE ( 'NONE', #1225, #408, #256, .T. ) ;
#569 = DIRECTION ( 'NONE',  ( 0.000000000000000000, 1.000000000000000000, 0.000000000000000000 ) ) ;
#570 = MANIFOLD_SOLID_BREP ( 'Cut-Extrude1', #417 ) ;
#571 = EDGE_LOOP ( 'NONE', ( #799, #622, #775, #521 ) ) ;
#572 = CIRCLE ( 'NONE', #526, 9.250000000000001776 ) ;
#573 = CARTESIAN_POINT ( 'NONE',  ( -25.00000000000000000, 5.000000000000000000, -29.00000000000000355 ) ) ;
#574 = EDGE_CURVE ( 'NONE', #1179, #1055, #1259, .T. ) ;
#575 = LINE ( 'NONE', #1177, #85 ) ;
#576 = ORIENTED_EDGE ( 'NONE', *, *, #203, .T. ) ;
#577 = VERTEX_POINT ( 'NONE', #162 ) ;
#578 = VERTEX_POINT ( 'NONE', #68 ) ;
#579 = DIRECTION ( 'NONE',  ( 0.000000000000000000, 0.000000000000000000, 1.000000000000000000 ) ) ;
#580 = EDGE_CURVE ( 'NONE', #1298, #115, #705, .T. ) ;
#581 = EDGE_LOOP ( 'NONE', ( #591, #956, #1168, #1002 ) ) ;
#582 = CARTESIAN_POINT ( 'NONE',  ( 14.99999999999996447, 0.000000000000000000, -26.80000000000000426 ) ) ;
#583 = ORIENTED_EDGE ( 'NONE', *, *, #882, .T. ) ;
#584 = VECTOR ( 'NONE', #842, 1000.000000000000000 ) ;
#585 = SURFACE_STYLE_USAGE ( .BOTH. , #466 ) ;
#586 = DIRECTION ( 'NONE',  ( 0.000000000000000000, 0.000000000000000000, -1.000000000000000000 ) ) ;
#587 = ORIENTED_EDGE ( 'NONE', *, *, #552, .F. ) ;
#588 = ORIENTED_EDGE ( 'NONE', *, *, #314, .T. ) ;
#589 = EDGE_CURVE ( 'NONE', #1283, #840, #1288, .T. ) ;
#590 = CARTESIAN_POINT ( 'NONE',  ( 25.00000000000000000, 3.000000000000000000, 28.99999999999998934 ) ) ;
#591 = ORIENTED_EDGE ( 'NONE', *, *, #122, .T. ) ;
#592 = VECTOR ( 'NONE', #1214, 1000.000000000000000 ) ;
#593 = ORIENTED_EDGE ( 'NONE', *, *, #457, .T. ) ;
#594 = AXIS2_PLACEMENT_3D ( 'NONE', #24, #435, #557 ) ;
#595 = LINE ( 'NONE', #1097, #254 ) ;
#596 = EDGE_CURVE ( 'NONE', #846, #607, #1192, .T. ) ;
#597 = CARTESIAN_POINT ( 'NONE',  ( 34.25000000000000000, 5.000000000000000000, 28.99999999999999289 ) ) ;
#598 = LINE ( 'NONE', #915, #379 ) ;
#599 = VERTEX_POINT ( 'NONE', #1016 ) ;
#600 = AXIS2_PLACEMENT_3D ( 'NONE', #338, #740, #193 ) ;
#601 = ORIENTED_EDGE ( 'NONE', *, *, #333, .T. ) ;
#602 = AXIS2_PLACEMENT_3D ( 'NONE', #406, #1223, #313 ) ;
#603 = DIRECTION ( 'NONE',  ( -0.000000000000000000, -1.000000000000000000, -0.000000000000000000 ) ) ;
#604 = PRODUCT_RELATED_PRODUCT_CATEGORY ( 'part', '', ( #787 ) ) ;
#605 = LINE ( 'NONE', #1194, #606 ) ;
#606 = VECTOR ( 'NONE', #816, 1000.000000000000000 ) ;
#607 = VERTEX_POINT ( 'NONE', #288 ) ;
#608 = DIRECTION ( 'NONE',  ( -0.000000000000000000, -1.000000000000000000, -0.000000000000000000 ) ) ;
#609 = DIRECTION ( 'NONE',  ( 0.000000000000000000, 0.000000000000000000, -1.000000000000000000 ) ) ;
#610 = CARTESIAN_POINT ( 'NONE',  ( 34.25000000000000000, 3.000000000000000000, 28.99999999999999289 ) ) ;
#611 = ADVANCED_FACE ( 'NONE', ( #1300 ), #951, .T. ) ;
#612 = ORIENTED_EDGE ( 'NONE', *, *, #158, .T. ) ;
#613 = CARTESIAN_POINT ( 'NONE',  ( -25.00000000000000000, 1.500000000000000000, 28.99999999999998934 ) ) ;
#614 = ORIENTED_EDGE ( 'NONE', *, *, #462, .T. ) ;
#615 = LINE ( 'NONE', #516, #394 ) ;
#616 = FACE_OUTER_BOUND ( 'NONE', #233, .T. ) ;
#617 = LINE ( 'NONE', #400, #442 ) ;
#618 = CIRCLE ( 'NONE', #482, 10.00000000000000178 ) ;
#619 = EDGE_CURVE ( 'NONE', #856, #1299, #129, .T. ) ;
#620 = ORIENTED_EDGE ( 'NONE', *, *, #563, .T. ) ;
#621 = ORIENTED_EDGE ( 'NONE', *, *, #774, .T. ) ;
#622 = ORIENTED_EDGE ( 'NONE', *, *, #891, .F. ) ;
#623 = DIRECTION ( 'NONE',  ( 1.000000000000000000, 0.000000000000000000, -0.000000000000000000 ) ) ;
#624 = DIRECTION ( 'NONE',  ( -0.000000000000000000, -1.000000000000000000, -0.000000000000000000 ) ) ;
#625 = AXIS2_PLACEMENT_3D ( 'NONE', #420, #1130, #850 ) ;
#626 = ORIENTED_EDGE ( 'NONE', *, *, #712, .T. ) ;
#627 = FACE_OUTER_BOUND ( 'NONE', #954, .T. ) ;
#628 = VECTOR ( 'NONE', #302, 1000.000000000000000 ) ;
#629 = CARTESIAN_POINT ( 'NONE',  ( -25.00000000000000000, 0.000000000000000000, 38.99999999999999289 ) ) ;
#630 = CARTESIAN_POINT ( 'NONE',  ( 25.00000000000000000, 3.000000000000000000, 38.99999999999999289 ) ) ;
#631 = CARTESIAN_POINT ( 'NONE',  ( 34.25000000000000000, 5.000000000000000000, 28.99999999999999289 ) ) ;
#632 = DIRECTION ( 'NONE',  ( -1.000000000000000000, 0.000000000000000000, -0.000000000000000000 ) ) ;
#633 = ADVANCED_FACE ( 'NONE', ( #39 ), #109, .F. ) ;
#634 = DIRECTION ( 'NONE',  ( 0.000000000000000000, -1.000000000000000000, 0.000000000000000000 ) ) ;
#635 = PLANE ( 'NONE',  #456 ) ;
#636 = ORIENTED_EDGE ( 'NONE', *, *, #712, .F. ) ;
#637 = CARTESIAN_POINT ( 'NONE',  ( -13.49999999999999822, 0.5000000000000000000, -22.33097289055185897 ) ) ;
#638 = ORIENTED_EDGE ( 'NONE', *, *, #84, .F. ) ;
#639 = CARTESIAN_POINT ( 'NONE',  ( 20.19999999999999574, 0.5000000000000000000, 8.399999999999952394 ) ) ;
#640 = DIRECTION ( 'NONE',  ( 0.000000000000000000, 0.000000000000000000, 1.000000000000000000 ) ) ;
#641 = EDGE_CURVE ( 'NONE', #548, #31, #449, .T. ) ;
#642 = AXIS2_PLACEMENT_3D ( 'NONE', #770, #473, #875 ) ;
#643 = DIRECTION ( 'NONE',  ( 1.000000000000000000, 0.000000000000000000, 2.312964634635748873E-16 ) ) ;
#644 = PRODUCT_CONTEXT ( 'NONE', #1112, 'mechanical' ) ;
#645 = CARTESIAN_POINT ( 'NONE',  ( 13.49999999999999822, 0.5000000000000000000, -22.33097289055185897 ) ) ;
#646 = CARTESIAN_POINT ( 'NONE',  ( 33.50000000000000000, 5.000000000000000000, 28.99999999999998934 ) ) ;
#647 = ORIENTED_EDGE ( 'NONE', *, *, #82, .F. ) ;
#648 = CIRCLE ( 'NONE', #880, 10.00000000000000178 ) ;
#649 = LINE ( 'NONE', #1265, #9 ) ;
#650 = ADVANCED_FACE ( 'NONE', ( #919 ), #12, .F. ) ;
#651 = CARTESIAN_POINT ( 'NONE',  ( 25.00000000000000000, 3.000000000000000000, -29.00000000000000355 ) ) ;
#652 = VECTOR ( 'NONE', #142, 1000.000000000000000 ) ;
#653 = CARTESIAN_POINT ( 'NONE',  ( -34.25000000000000000, 3.000000000000000000, 28.99999999999998934 ) ) ;
#654 = DIRECTION ( 'NONE',  ( -0.000000000000000000, -1.000000000000000000, -0.000000000000000000 ) ) ;
#655 = ORIENTED_EDGE ( 'NONE', *, *, #66, .F. ) ;
#656 = ORIENTED_EDGE ( 'NONE', *, *, #698, .F. ) ;
#657 = CARTESIAN_POINT ( 'NONE',  ( -34.25000000000000000, 3.000000000000000000, -29.00000000000000355 ) ) ;
#658 = CARTESIAN_POINT ( 'NONE',  ( 25.00000000000000000, 3.000000000000000000, 38.24999999999999289 ) ) ;
#659 = ADVANCED_FACE ( 'NONE', ( #324 ), #1029, .F. ) ;
#660 = ORIENTED_EDGE ( 'NONE', *, *, #965, .F. ) ;
#661 = VERTEX_POINT ( 'NONE', #427 ) ;
#662 = CARTESIAN_POINT ( 'NONE',  ( -25.00000000000000000, 0.000000000000000000, 38.99999999999999289 ) ) ;
#663 = CARTESIAN_POINT ( 'NONE',  ( -33.50000000000000000, 5.000000000000000000, -29.00000000000000355 ) ) ;
#664 = VECTOR ( 'NONE', #754, 1000.000000000000000 ) ;
#665 = DIRECTION ( 'NONE',  ( 0.000000000000000000, 0.000000000000000000, -1.000000000000000000 ) ) ;
#666 = DIRECTION ( 'NONE',  ( 0.000000000000000000, -1.000000000000000000, 0.000000000000000000 ) ) ;
#667 = ADVANCED_FACE ( 'NONE', ( #828 ), #1248, .T. ) ;
#668 = ORIENTED_EDGE ( 'NONE', *, *, #228, .F. ) ;
#669 = CARTESIAN_POINT ( 'NONE',  ( -14.99999999999999645, 0.5000000000000000000, 8.399999999999991473 ) ) ;
#670 = AXIS2_PLACEMENT_3D ( 'NONE', #445, #1111, #323 ) ;
#671 = DIRECTION ( 'NONE',  ( 0.000000000000000000, 1.000000000000000000, 0.000000000000000000 ) ) ;
#672 = VECTOR ( 'NONE', #148, 1000.000000000000000 ) ;
#673 = ORIENTED_EDGE ( 'NONE', *, *, #2, .T. ) ;
#674 = AXIS2_PLACEMENT_3D ( 'NONE', #1297, #1126, #407 ) ;
#675 = DIRECTION ( 'NONE',  ( 1.000000000000000000, 0.000000000000000000, 3.212450881438532364E-17 ) ) ;
#676 = VECTOR ( 'NONE', #364, 1000.000000000000000 ) ;
#677 = FACE_OUTER_BOUND ( 'NONE', #759, .T. ) ;
#678 = EDGE_CURVE ( 'NONE', #1134, #925, #736, .T. ) ;
#679 = ORIENTED_EDGE ( 'NONE', *, *, #947, .F. ) ;
#680 = CARTESIAN_POINT ( 'NONE',  ( -25.00000000000000000, 3.000000000000000000, -29.00000000000000355 ) ) ;
#681 = EDGE_CURVE ( 'NONE', #992, #925, #220, .T. ) ;
#682 = LINE ( 'NONE', #1183, #320 ) ;
#683 = CARTESIAN_POINT ( 'NONE',  ( -25.00000000000000000, 3.000000000000000000, 28.99999999999998934 ) ) ;
#684 = VERTEX_POINT ( 'NONE', #630 ) ;
#685 = ORIENTED_EDGE ( 'NONE', *, *, #857, .T. ) ;
#686 = CARTESIAN_POINT ( 'NONE',  ( -25.00000000000000000, 1.500000000000000000, -29.00000000000000355 ) ) ;
#687 = CARTESIAN_POINT ( 'NONE',  ( 20.19999999999999929, 0.000000000000000000, -21.59999999999996589 ) ) ;
#688 = VECTOR ( 'NONE', #119, 1000.000000000000000 ) ;
#689 = VERTEX_POINT ( 'NONE', #1143 ) ;
#690 = AXIS2_PLACEMENT_3D ( 'NONE', #421, #609, #428 ) ;
#691 = COLOUR_RGB ( '',0.7921568627450980005, 0.8196078431372548767, 0.9333333333333333481 ) ;
#692 = DIRECTION ( 'NONE',  ( -0.000000000000000000, -1.000000000000000000, -0.000000000000000000 ) ) ;
#693 = ORIENTED_EDGE ( 'NONE', *, *, #558, .F. ) ;
#694 = EDGE_CURVE ( 'NONE', #941, #718, #229, .T. ) ;
#695 = EDGE_LOOP ( 'NONE', ( #1178, #152, #679, #1102 ) ) ;
#696 = DIRECTION ( 'NONE',  ( -1.000000000000000000, 0.000000000000000000, 0.000000000000000000 ) ) ;
#697 = CARTESIAN_POINT ( 'NONE',  ( 15.00000000000000355, 0.5000000000000000000, -21.60000000000000853 ) ) ;
#698 = EDGE_CURVE ( 'NONE', #1032, #490, #1041, .T. ) ;
#699 = DIRECTION ( 'NONE',  ( 0.000000000000000000, 1.000000000000000000, -0.000000000000000000 ) ) ;
#700 = CARTESIAN_POINT ( 'NONE',  ( -25.00000000000000000, 5.000000000000000000, -37.50000000000000711 ) ) ;
#701 = ORIENTED_EDGE ( 'NONE', *, *, #726, .F. ) ;
#702 = ORIENTED_EDGE ( 'NONE', *, *, #1181, .T. ) ;
#703 = PLANE ( 'NONE',  #690 ) ;
#704 = DIRECTION ( 'NONE',  ( 0.000000000000000000, 0.000000000000000000, -1.000000000000000000 ) ) ;
#705 = CIRCLE ( 'NONE', #861, 8.500000000000000000 ) ;
#706 = ADVANCED_FACE ( 'NONE', ( #1303 ), #703, .T. ) ;
#707 = CARTESIAN_POINT ( 'NONE',  ( 25.00000000000000000, 3.000000000000000000, -39.00000000000000711 ) ) ;
#708 = CIRCLE ( 'NONE', #305, 9.250000000000001776 ) ;
#709 = ORIENTED_EDGE ( 'NONE', *, *, #462, .F. ) ;
#710 = CARTESIAN_POINT ( 'NONE',  ( 25.00000000000000000, 1.500000000000000000, 37.49999999999999289 ) ) ;
#711 = LINE ( 'NONE', #103, #155 ) ;
#712 = EDGE_CURVE ( 'NONE', #448, #1298, #1030, .T. ) ;
#713 = DIRECTION ( 'NONE',  ( -0.000000000000000000, -1.000000000000000000, -0.000000000000000000 ) ) ;
#714 = VERTEX_POINT ( 'NONE', #801 ) ;
#715 = CARTESIAN_POINT ( 'NONE',  ( 25.00000000000000000, 3.000000000000000000, 28.99999999999998934 ) ) ;
#716 = CARTESIAN_POINT ( 'NONE',  ( -25.00000000000000000, 0.000000000000000000, -29.00000000000000355 ) ) ;
#717 = CYLINDRICAL_SURFACE ( 'NONE', #285, 8.500000000000000000 ) ;
#718 = VERTEX_POINT ( 'NONE', #1204 ) ;
#719 = ORIENTED_EDGE ( 'NONE', *, *, #1181, .F. ) ;
#720 = EDGE_LOOP ( 'NONE', ( #465, #277, #779, #509 ) ) ;
#721 = DIRECTION ( 'NONE',  ( 0.000000000000000000, 0.000000000000000000, -1.000000000000000000 ) ) ;
#722 = ADVANCED_FACE ( 'NONE', ( #1131 ), #293, .F. ) ;
#723 = CIRCLE ( 'NONE', #393, 10.00000000000000178 ) ;
#724 = CARTESIAN_POINT ( 'NONE',  ( 25.00000000000000000, 3.000000000000000000, 38.99999999999999289 ) ) ;
#725 = FACE_OUTER_BOUND ( 'NONE', #820, .T. ) ;
#726 = EDGE_CURVE ( 'NONE', #577, #684, #202, .T. ) ;
#727 = LINE ( 'NONE', #734, #385 ) ;
#728 = DIRECTION ( 'NONE',  ( 1.000000000000000000, 0.000000000000000000, 0.000000000000000000 ) ) ;
#729 = CARTESIAN_POINT ( 'NONE',  ( 15.00000000000000355, 0.000000000000000000, -21.60000000000000853 ) ) ;
#730 = DIRECTION ( 'NONE',  ( 0.000000000000000000, 1.000000000000000000, 0.000000000000000000 ) ) ;
#731 = CARTESIAN_POINT ( 'NONE',  ( -14.99999999999999645, 0.000000000000000000, 8.399999999999991473 ) ) ;
#732 = DIRECTION ( 'NONE',  ( -0.000000000000000000, -1.000000000000000000, -0.000000000000000000 ) ) ;
#733 = ORIENTED_EDGE ( 'NONE', *, *, #333, .F. ) ;
#734 = CARTESIAN_POINT ( 'NONE',  ( 20.20000000000000284, 0.5000000000000000000, -21.59999999999996589 ) ) ;
#735 = ORIENTED_EDGE ( 'NONE', *, *, #321, .F. ) ;
#736 = LINE ( 'NONE', #32, #1093 ) ;
#737 = CARTESIAN_POINT ( 'NONE',  ( 14.99999999999999645, 0.5000000000000000000, 8.399999999999989697 ) ) ;
#738 = DIRECTION ( 'NONE',  ( 0.000000000000000000, 0.000000000000000000, 1.000000000000000000 ) ) ;
#739 = ORIENTED_EDGE ( 'NONE', *, *, #929, .F. ) ;
#740 = DIRECTION ( 'NONE',  ( -1.000000000000000000, 0.000000000000000000, 0.000000000000000000 ) ) ;
#741 = DIRECTION ( 'NONE',  ( 0.000000000000000000, 0.000000000000000000, -1.000000000000000000 ) ) ;
#742 = ORIENTED_EDGE ( 'NONE', *, *, #574, .F. ) ;
#743 = DIRECTION ( 'NONE',  ( 1.000000000000000000, -0.000000000000000000, 2.312964634635749366E-16 ) ) ;
#744 =( NAMED_UNIT ( * ) SI_UNIT ( $, .STERADIAN. ) SOLID_ANGLE_UNIT ( ) );
#745 = EDGE_CURVE ( 'NONE', #212, #179, #615, .T. ) ;
#746 = VECTOR ( 'NONE', #807, 1000.000000000000000 ) ;
#747 = VECTOR ( 'NONE', #958, 1000.000000000000000 ) ;
#748 = DIRECTION ( 'NONE',  ( 0.000000000000000000, 1.000000000000000000, 0.000000000000000000 ) ) ;
#749 = ADVANCED_BREP_SHAPE_REPRESENTATION ( 'Back Part 2', ( #570, #1280 ), #837 ) ;
#750 = ORIENTED_EDGE ( 'NONE', *, *, #563, .F. ) ;
#751 = ORIENTED_EDGE ( 'NONE', *, *, #1133, .T. ) ;
#752 = CARTESIAN_POINT ( 'NONE',  ( -25.00000000000000000, 1.500000000000000000, -37.50000000000001421 ) ) ;
#753 = CIRCLE ( 'NONE', #177, 5.200000000000000178 ) ;
#754 = DIRECTION ( 'NONE',  ( -2.312964634635749366E-16, 0.000000000000000000, 1.000000000000000000 ) ) ;
#755 = DIRECTION ( 'NONE',  ( -0.000000000000000000, -1.000000000000000000, -0.000000000000000000 ) ) ;
#756 = EDGE_CURVE ( 'NONE', #374, #89, #250, .T. ) ;
#757 = LINE ( 'NONE', #979, #1077 ) ;
#758 = EDGE_LOOP ( 'NONE', ( #561, #18, #331, #890 ) ) ;
#759 = EDGE_LOOP ( 'NONE', ( #601, #489, #656, #205 ) ) ;
#760 = LINE ( 'NONE', #460, #353 ) ;
#761 = CARTESIAN_POINT ( 'NONE',  ( 14.99999999999996092, 0.000000000000000000, 13.59999999999998899 ) ) ;
#762 = CARTESIAN_POINT ( 'NONE',  ( -14.99999999999999645, 0.5000000000000000000, -21.60000000000001208 ) ) ;
#763 = CIRCLE ( 'NONE', #934, 8.500000000000000000 ) ;
#764 = VECTOR ( 'NONE', #334, 1000.000000000000000 ) ;
#765 = CARTESIAN_POINT ( 'NONE',  ( -33.50000000000000000, 1.500000000000000000, 28.99999999999998934 ) ) ;
#766 = ORIENTED_EDGE ( 'NONE', *, *, #1069, .F. ) ;
#767 = ORIENTED_EDGE ( 'NONE', *, *, #1173, .T. ) ;
#768 = AXIS2_PLACEMENT_3D ( 'NONE', #683, #1089, #488 ) ;
#769 = EDGE_CURVE ( 'NONE', #459, #1032, #413, .T. ) ;
#770 = CARTESIAN_POINT ( 'NONE',  ( 15.00000000000000355, 0.5000000000000000000, -21.60000000000000853 ) ) ;
#771 = DIRECTION ( 'NONE',  ( -0.000000000000000000, -1.000000000000000000, -0.000000000000000000 ) ) ;
#772 = AXIS2_PLACEMENT_3D ( 'NONE', #295, #699, #999 ) ;
#773 = ORIENTED_EDGE ( 'NONE', *, *, #268, .F. ) ;
#774 = EDGE_CURVE ( 'NONE', #578, #1203, #53, .T. ) ;
#775 = ORIENTED_EDGE ( 'NONE', *, *, #178, .F. ) ;
#776 = CARTESIAN_POINT ( 'NONE',  ( -25.00000000000000000, 5.000000000000000000, 28.99999999999998934 ) ) ;
#777 = DIRECTION ( 'NONE',  ( 0.000000000000000000, 0.000000000000000000, 1.000000000000000000 ) ) ;
#778 = DIRECTION ( 'NONE',  ( -0.000000000000000000, -1.000000000000000000, -0.000000000000000000 ) ) ;
#779 = ORIENTED_EDGE ( 'NONE', *, *, #1197, .F. ) ;
#780 = ADVANCED_FACE ( 'NONE', ( #952 ), #1048, .F. ) ;
#781 = DIRECTION ( 'NONE',  ( 0.000000000000000000, 1.000000000000000000, -0.000000000000000000 ) ) ;
#782 = LINE ( 'NONE', #259, #1264 ) ;
#783 = CIRCLE ( 'NONE', #430, 5.199999999999996625 ) ;
#784 = ORIENTED_EDGE ( 'NONE', *, *, #382, .T. ) ;
#785 = ADVANCED_FACE ( 'NONE', ( #1150 ), #866, .F. ) ;
#786 = VERTEX_POINT ( 'NONE', #761 ) ;
#787 = PRODUCT ( 'Back Part 2', 'Back Part 2', '', ( #644 ) ) ;
#788 = LINE ( 'NONE', #896, #195 ) ;
#789 = EDGE_CURVE ( 'NONE', #840, #1001, #783, .T. ) ;
#790 = LINE ( 'NONE', #1105, #969 ) ;
#791 = ORIENTED_EDGE ( 'NONE', *, *, #92, .F. ) ;
#792 = ORIENTED_EDGE ( 'NONE', *, *, #71, .F. ) ;
#793 = VECTOR ( 'NONE', #398, 1000.000000000000000 ) ;
#794 = PLANE ( 'NONE',  #1155 ) ;
#795 = LINE ( 'NONE', #902, #1217 ) ;
#796 = AXIS2_PLACEMENT_3D ( 'NONE', #651, #223, #921 ) ;
#797 = EDGE_CURVE ( 'NONE', #179, #527, #1063, .T. ) ;
#798 = ORIENTED_EDGE ( 'NONE', *, *, #1104, .T. ) ;
#799 = ORIENTED_EDGE ( 'NONE', *, *, #66, .T. ) ;
#800 = ORIENTED_EDGE ( 'NONE', *, *, #359, .T. ) ;
#801 = CARTESIAN_POINT ( 'NONE',  ( 13.49999999999999822, 1.500000000000000000, -22.33097289055185897 ) ) ;
#802 = DIRECTION ( 'NONE',  ( 0.000000000000000000, 0.000000000000000000, -1.000000000000000000 ) ) ;
#803 = DIRECTION ( 'NONE',  ( 0.000000000000000000, 0.000000000000000000, 1.000000000000000000 ) ) ;
#804 = ORIENTED_EDGE ( 'NONE', *, *, #1069, .T. ) ;
#805 = ADVANCED_FACE ( 'NONE', ( #230, #1042 ), #130, .T. ) ;
#806 = ORIENTED_EDGE ( 'NONE', *, *, #1110, .F. ) ;
#807 = DIRECTION ( 'NONE',  ( 1.000000000000000000, 0.000000000000000000, 2.312964634635748873E-16 ) ) ;
#808 = DIRECTION ( 'NONE',  ( -0.000000000000000000, -1.000000000000000000, -0.000000000000000000 ) ) ;
#809 = CARTESIAN_POINT ( 'NONE',  ( -35.00000000000000000, 3.000000000000000000, -29.00000000000000000 ) ) ;
#810 = ORIENTED_EDGE ( 'NONE', *, *, #55, .T. ) ;
#811 = AXIS2_PLACEMENT_3D ( 'NONE', #232, #44, #1033 ) ;
#812 = DIRECTION ( 'NONE',  ( 1.000000000000000000, 0.000000000000000000, 0.000000000000000000 ) ) ;
#813 = EDGE_LOOP ( 'NONE', ( #693, #981, #621, #1076 ) ) ;
#814 = EDGE_CURVE ( 'NONE', #1001, #718, #550, .T. ) ;
#815 = VECTOR ( 'NONE', #1175, 1000.000000000000000 ) ;
#816 = DIRECTION ( 'NONE',  ( -1.000000000000000000, 0.000000000000000000, 0.000000000000000000 ) ) ;
#817 = VECTOR ( 'NONE', #863, 1000.000000000000000 ) ;
#818 = ORIENTED_EDGE ( 'NONE', *, *, #977, .T. ) ;
#819 = CARTESIAN_POINT ( 'NONE',  ( -25.00000000000000000, 5.000000000000000000, 37.49999999999999289 ) ) ;
#820 = EDGE_LOOP ( 'NONE', ( #905, #792, #1067, #297 ) ) ;
#821 = DIRECTION ( 'NONE',  ( 0.000000000000000000, 0.000000000000000000, -1.000000000000000000 ) ) ;
#822 = CARTESIAN_POINT ( 'NONE',  ( -35.00000000000000000, 0.000000000000000000, 28.99999999999998934 ) ) ;
#823 = ORIENTED_EDGE ( 'NONE', *, *, #641, .F. ) ;
#824 = VECTOR ( 'NONE', #510, 1000.000000000000000 ) ;
#825 = EDGE_LOOP ( 'NONE', ( #878, #1109, #1101, #916 ) ) ;
#826 = CARTESIAN_POINT ( 'NONE',  ( -14.99999999999999645, 0.5000000000000000000, 13.59999999999999076 ) ) ;
#827 = VECTOR ( 'NONE', #74, 1000.000000000000000 ) ;
#828 = FACE_OUTER_BOUND ( 'NONE', #1174, .T. ) ;
#829 = EDGE_CURVE ( 'NONE', #1027, #81, #1163, .T. ) ;
#830 = ORIENTED_EDGE ( 'NONE', *, *, #524, .F. ) ;
#831 = LINE ( 'NONE', #1045, #688 ) ;
#832 = VECTOR ( 'NONE', #862, 1000.000000000000000 ) ;
#833 = DIRECTION ( 'NONE',  ( -0.000000000000000000, -1.000000000000000000, -0.000000000000000000 ) ) ;
#834 = VECTOR ( 'NONE', #1249, 1000.000000000000000 ) ;
#835 = DIRECTION ( 'NONE',  ( 0.000000000000000000, 0.000000000000000000, 1.000000000000000000 ) ) ;
#836 = ADVANCED_FACE ( 'NONE', ( #349 ), #1060, .F. ) ;
#837 =( GEOMETRIC_REPRESENTATION_CONTEXT ( 3 ) GLOBAL_UNCERTAINTY_ASSIGNED_CONTEXT ( ( #1198 ) ) GLOBAL_UNIT_ASSIGNED_CONTEXT ( ( #1230, #34, #744 ) ) REPRESENTATION_CONTEXT ( 'NONE', 'WORKASPACE' ) );
#838 = DIRECTION ( 'NONE',  ( 0.000000000000000000, -0.000000000000000000, -1.000000000000000000 ) ) ;
#839 = DIRECTION ( 'NONE',  ( 0.000000000000000000, 0.000000000000000000, 1.000000000000000000 ) ) ;
#840 = VERTEX_POINT ( 'NONE', #582 ) ;
#841 = ORIENTED_EDGE ( 'NONE', *, *, #218, .F. ) ;
#842 = DIRECTION ( 'NONE',  ( -0.000000000000000000, -1.000000000000000000, -0.000000000000000000 ) ) ;
#843 = DIRECTION ( 'NONE',  ( -0.000000000000000000, -0.000000000000000000, 1.000000000000000000 ) ) ;
#844 = DIRECTION ( 'NONE',  ( -1.000000000000000000, 0.000000000000000000, 0.000000000000000000 ) ) ;
#845 = CARTESIAN_POINT ( 'NONE',  ( -13.49999999999999822, 0.5000000000000000000, -22.33097289055185897 ) ) ;
#846 = VERTEX_POINT ( 'NONE', #1095 ) ;
#847 = PLANE ( 'NONE',  #600 ) ;
#848 = ORIENTED_EDGE ( 'NONE', *, *, #756, .F. ) ;
#849 = ORIENTED_EDGE ( 'NONE', *, *, #485, .F. ) ;
#850 = DIRECTION ( 'NONE',  ( 1.000000000000000000, 0.000000000000000000, 3.212450881438532980E-17 ) ) ;
#851 = EDGE_CURVE ( 'NONE', #115, #1134, #995, .T. ) ;
#852 = DIRECTION ( 'NONE',  ( 0.000000000000000000, 0.000000000000000000, -1.000000000000000000 ) ) ;
#853 = DIRECTION ( 'NONE',  ( 0.000000000000000000, 0.000000000000000000, -1.000000000000000000 ) ) ;
#854 = DIRECTION ( 'NONE',  ( 0.000000000000000000, 0.000000000000000000, -1.000000000000000000 ) ) ;
#855 = CARTESIAN_POINT ( 'NONE',  ( 33.50000000000000000, 1.500000000000000000, -29.00000000000000355 ) ) ;
#856 = VERTEX_POINT ( 'NONE', #1221 ) ;
#857 = EDGE_CURVE ( 'NONE', #1306, #856, #1040, .T. ) ;
#858 =( NAMED_UNIT ( * ) PLANE_ANGLE_UNIT ( ) SI_UNIT ( $, .RADIAN. ) );
#859 = AXIS2_PLACEMENT_3D ( 'NONE', #901, #28, #453 ) ;
#860 = CARTESIAN_POINT ( 'NONE',  ( -13.49999999999999822, 1.500000000000000000, 6.899999999999989697 ) ) ;
#861 = AXIS2_PLACEMENT_3D ( 'NONE', #776, #269, #168 ) ;
#862 = DIRECTION ( 'NONE',  ( -1.000000000000000000, 0.000000000000000000, 0.000000000000000000 ) ) ;
#863 = DIRECTION ( 'NONE',  ( 0.000000000000000000, 0.000000000000000000, -1.000000000000000000 ) ) ;
#864 = ORIENTED_EDGE ( 'NONE', *, *, #910, .T. ) ;
#865 = CARTESIAN_POINT ( 'NONE',  ( -25.00000000000000000, 5.000000000000000000, -38.25000000000000711 ) ) ;
#866 = PLANE ( 'NONE',  #20 ) ;
#867 = AXIS2_PLACEMENT_3D ( 'NONE', #1058, #336, #143 ) ;
#868 = LINE ( 'NONE', #559, #834 ) ;
#869 = LINE ( 'NONE', #77, #676 ) ;
#870 = LINE ( 'NONE', #60, #376 ) ;
#871 = ORIENTED_EDGE ( 'NONE', *, *, #568, .F. ) ;
#872 = CARTESIAN_POINT ( 'NONE',  ( 25.00000000000000000, 3.000000000000000000, -39.00000000000000711 ) ) ;
#873 = CARTESIAN_POINT ( 'NONE',  ( -34.25000000000000000, 5.000000000000000000, 28.99999999999998934 ) ) ;
#874 = CIRCLE ( 'NONE', #1207, 10.00000000000000178 ) ;
#875 = DIRECTION ( 'NONE',  ( 0.000000000000000000, 0.000000000000000000, -1.000000000000000000 ) ) ;
#876 = EDGE_CURVE ( 'NONE', #121, #161, #120, .T. ) ;
#877 = ORIENTED_EDGE ( 'NONE', *, *, #495, .F. ) ;
#878 = ORIENTED_EDGE ( 'NONE', *, *, #589, .T. ) ;
#879 = DIRECTION ( 'NONE',  ( -0.000000000000000000, -1.000000000000000000, -0.000000000000000000 ) ) ;
#880 = AXIS2_PLACEMENT_3D ( 'NONE', #680, #1086, #487 ) ;
#881 = CYLINDRICAL_SURFACE ( 'NONE', #904, 9.250000000000001776 ) ;
#882 = EDGE_CURVE ( 'NONE', #1208, #941, #727, .T. ) ;
#883 = VECTOR ( 'NONE', #153, 1000.000000000000000 ) ;
#884 = ORIENTED_EDGE ( 'NONE', *, *, #422, .F. ) ;
#885 = AXIS2_PLACEMENT_3D ( 'NONE', #731, #666, #948 ) ;
#886 = CARTESIAN_POINT ( 'NONE',  ( -33.50000000000000000, 1.500000000000000000, -29.00000000000000355 ) ) ;
#887 = DIRECTION ( 'NONE',  ( 1.000000000000000000, 0.000000000000000000, 0.000000000000000000 ) ) ;
#888 = CARTESIAN_POINT ( 'NONE',  ( 25.00000000000000000, 5.000000000000000000, -29.00000000000000355 ) ) ;
#889 = VERTEX_POINT ( 'NONE', #926 ) ;
#890 = ORIENTED_EDGE ( 'NONE', *, *, #641, .T. ) ;
#891 = EDGE_CURVE ( 'NONE', #846, #350, #530, .T. ) ;
#892 = DIRECTION ( 'NONE',  ( 0.000000000000000000, 1.000000000000000000, -0.000000000000000000 ) ) ;
#893 = VERTEX_POINT ( 'NONE', #629 ) ;
#894 = FACE_OUTER_BOUND ( 'NONE', #447, .T. ) ;
#895 = EDGE_CURVE ( 'NONE', #856, #1027, #1015, .T. ) ;
#896 = CARTESIAN_POINT ( 'NONE',  ( -25.00000000000000000, 3.000000000000000000, 38.24999999999999289 ) ) ;
#897 = FACE_OUTER_BOUND ( 'NONE', #45, .T. ) ;
#898 = ORIENTED_EDGE ( 'NONE', *, *, #1127, .T. ) ;
#899 = CIRCLE ( 'NONE', #29, 10.00000000000000178 ) ;
#900 = EDGE_LOOP ( 'NONE', ( #767, #871, #425, #702 ) ) ;
#901 = CARTESIAN_POINT ( 'NONE',  ( -25.00000000000000000, 3.000000000000000000, 28.99999999999998934 ) ) ;
#902 = CARTESIAN_POINT ( 'NONE',  ( 35.00000000000000000, 3.000000000000000000, -29.00000000000000355 ) ) ;
#903 = AXIS2_PLACEMENT_3D ( 'NONE', #590, #1121, #1013 ) ;
#904 = AXIS2_PLACEMENT_3D ( 'NONE', #1278, #778, #586 ) ;
#905 = ORIENTED_EDGE ( 'NONE', *, *, #1110, .T. ) ;
#906 = EDGE_CURVE ( 'NONE', #1268, #661, #188, .T. ) ;
#907 = DIRECTION ( 'NONE',  ( -0.000000000000000000, -0.000000000000000000, 1.000000000000000000 ) ) ;
#908 = CARTESIAN_POINT ( 'NONE',  ( -33.50000000000000000, 1.500000000000000000, 28.99999999999998934 ) ) ;
#909 = DIRECTION ( 'NONE',  ( 0.000000000000000000, -0.000000000000000000, -1.000000000000000000 ) ) ;
#910 = EDGE_CURVE ( 'NONE', #490, #1268, #410, .T. ) ;
#911 = ORIENTED_EDGE ( 'NONE', *, *, #495, .T. ) ;
#912 = DIRECTION ( 'NONE',  ( 0.000000000000000000, 0.000000000000000000, 1.000000000000000000 ) ) ;
#913 = ORIENTED_EDGE ( 'NONE', *, *, #1274, .F. ) ;
#914 = CARTESIAN_POINT ( 'NONE',  ( -35.00000000000000000, 3.000000000000000000, 28.99999999999998934 ) ) ;
#915 = CARTESIAN_POINT ( 'NONE',  ( 25.00000000000000000, 5.000000000000000000, -38.25000000000000711 ) ) ;
#916 = ORIENTED_EDGE ( 'NONE', *, *, #294, .T. ) ;
#917 = AXIS2_PLACEMENT_3D ( 'NONE', #234, #434, #623 ) ;
#918 = CARTESIAN_POINT ( 'NONE',  ( 25.00000000000000000, 5.000000000000000000, 38.24999999999999289 ) ) ;
#919 = FACE_OUTER_BOUND ( 'NONE', #960, .T. ) ;
#920 = STYLED_ITEM ( 'NONE', ( #975 ), #570 ) ;
#921 = DIRECTION ( 'NONE',  ( 0.000000000000000000, 0.000000000000000000, -1.000000000000000000 ) ) ;
#922 = AXIS2_PLACEMENT_3D ( 'NONE', #43, #634, #838 ) ;
#923 = AXIS2_PLACEMENT_3D ( 'NONE', #124, #424, #835 ) ;
#924 = VERTEX_POINT ( 'NONE', #211 ) ;
#925 = VERTEX_POINT ( 'NONE', #710 ) ;
#926 = CARTESIAN_POINT ( 'NONE',  ( 33.50000000000000000, 1.500000000000000000, 28.99999999999998934 ) ) ;
#927 = ORIENTED_EDGE ( 'NONE', *, *, #508, .T. ) ;
#928 = DIRECTION ( 'NONE',  ( -1.000000000000000000, 0.000000000000000000, 0.000000000000000000 ) ) ;
#929 = EDGE_CURVE ( 'NONE', #372, #992, #763, .T. ) ;
#930 = CARTESIAN_POINT ( 'NONE',  ( 25.00000000000000000, 0.000000000000000000, -39.00000000000000711 ) ) ;
#931 = CARTESIAN_POINT ( 'NONE',  ( 0.000000000000000000, 0.000000000000000000, 0.000000000000000000 ) ) ;
#932 = ORIENTED_EDGE ( 'NONE', *, *, #343, .F. ) ;
#933 = FACE_OUTER_BOUND ( 'NONE', #186, .T. ) ;
#934 = AXIS2_PLACEMENT_3D ( 'NONE', #613, #514, #10 ) ;
#935 = ORIENTED_EDGE ( 'NONE', *, *, #829, .F. ) ;
#936 = DIRECTION ( 'NONE',  ( 0.000000000000000000, 0.000000000000000000, -1.000000000000000000 ) ) ;
#937 = EDGE_CURVE ( 'NONE', #1273, #950, #159, .T. ) ;
#938 = ORIENTED_EDGE ( 'NONE', *, *, #55, .F. ) ;
#939 = EDGE_LOOP ( 'NONE', ( #1196, #974, #545, #426, #1161, #982, #197, #114 ) ) ;
#940 = AXIS2_PLACEMENT_3D ( 'NONE', #163, #879, #802 ) ;
#941 = VERTEX_POINT ( 'NONE', #392 ) ;
#942 = DIRECTION ( 'NONE',  ( 1.000000000000000000, 0.000000000000000000, 0.000000000000000000 ) ) ;
#943 = VECTOR ( 'NONE', #48, 1000.000000000000000 ) ;
#944 = CARTESIAN_POINT ( 'NONE',  ( 25.00000000000000000, 1.500000000000000000, -37.50000000000000711 ) ) ;
#945 = CARTESIAN_POINT ( 'NONE',  ( -13.49999999999999822, 1.500000000000000000, 6.899999999999989697 ) ) ;
#946 = CIRCLE ( 'NONE', #885, 5.200000000000000178 ) ;
#947 = EDGE_CURVE ( 'NONE', #81, #1306, #595, .T. ) ;
#948 = DIRECTION ( 'NONE',  ( 0.000000000000000000, 0.000000000000000000, 1.000000000000000000 ) ) ;
#949 = CARTESIAN_POINT ( 'NONE',  ( -25.00000000000000000, 5.000000000000000000, 38.24999999999999289 ) ) ;
#950 = VERTEX_POINT ( 'NONE', #1009 ) ;
#951 = PLANE ( 'NONE',  #917 ) ;
#952 = FACE_OUTER_BOUND ( 'NONE', #260, .T. ) ;
#953 = PLANE ( 'NONE',  #1135 ) ;
#954 = EDGE_LOOP ( 'NONE', ( #65, #884, #766, #864 ) ) ;
#955 = CARTESIAN_POINT ( 'NONE',  ( -25.00000000000000000, 0.000000000000000000, -39.00000000000000711 ) ) ;
#956 = ORIENTED_EDGE ( 'NONE', *, *, #294, .F. ) ;
#957 = VERTEX_POINT ( 'NONE', #292 ) ;
#958 = DIRECTION ( 'NONE',  ( -0.000000000000000000, -1.000000000000000000, -0.000000000000000000 ) ) ;
#959 = LINE ( 'NONE', #724, #1279 ) ;
#960 = EDGE_LOOP ( 'NONE', ( #593, #515, #346, #387 ) ) ;
#961 = CARTESIAN_POINT ( 'NONE',  ( -34.25000000000000000, 5.000000000000000000, 28.99999999999998934 ) ) ;
#962 = VECTOR ( 'NONE', #411, 1000.000000000000000 ) ;
#963 = FACE_OUTER_BOUND ( 'NONE', #75, .T. ) ;
#964 = DIRECTION ( 'NONE',  ( -1.000000000000000000, -0.000000000000000000, -0.000000000000000000 ) ) ;
#965 = EDGE_CURVE ( 'NONE', #329, #714, #403, .T. ) ;
#966 = DIRECTION ( 'NONE',  ( -0.000000000000000000, -1.000000000000000000, -0.000000000000000000 ) ) ;
#967 = ORIENTED_EDGE ( 'NONE', *, *, #1151, .T. ) ;
#968 = FILL_AREA_STYLE ('',( #1068 ) ) ;
#969 = VECTOR ( 'NONE', #104, 1000.000000000000000 ) ;
#970 = LINE ( 'NONE', #1057, #652 ) ;
#971 = EDGE_CURVE ( 'NONE', #684, #1273, #874, .T. ) ;
#972 = CARTESIAN_POINT ( 'NONE',  ( -25.00000000000000000, 1.500000000000000000, 37.49999999999999289 ) ) ;
#973 = ORIENTED_EDGE ( 'NONE', *, *, #298, .F. ) ;
#974 = ORIENTED_EDGE ( 'NONE', *, *, #681, .T. ) ;
#975 = PRESENTATION_STYLE_ASSIGNMENT (( #585 ) ) ;
#976 = DIRECTION ( 'NONE',  ( 0.000000000000000000, 0.000000000000000000, 1.000000000000000000 ) ) ;
#977 = EDGE_CURVE ( 'NONE', #291, #1208, #1107, .T. ) ;
#978 = CARTESIAN_POINT ( 'NONE',  ( 13.49999999999999822, 1.500000000000000000, -22.33097289055185897 ) ) ;
#979 = CARTESIAN_POINT ( 'NONE',  ( -13.49999999999999822, 1.500000000000000000, -22.33097289055185897 ) ) ;
#980 = ORIENTED_EDGE ( 'NONE', *, *, #882, .F. ) ;
#981 = ORIENTED_EDGE ( 'NONE', *, *, #1006, .F. ) ;
#982 = ORIENTED_EDGE ( 'NONE', *, *, #558, .T. ) ;
#983 = CARTESIAN_POINT ( 'NONE',  ( -14.99999999999999645, 0.000000000000000000, -21.60000000000001208 ) ) ;
#984 = AXIS2_PLACEMENT_3D ( 'NONE', #225, #239, #528 ) ;
#985 = CARTESIAN_POINT ( 'NONE',  ( -34.25000000000000000, 3.000000000000000000, -29.00000000000000355 ) ) ;
#986 = VECTOR ( 'NONE', #843, 1000.000000000000000 ) ;
#987 = ORIENTED_EDGE ( 'NONE', *, *, #1127, .F. ) ;
#988 = AXIS2_PLACEMENT_3D ( 'NONE', #669, #1255, #52 ) ;
#989 = EDGE_CURVE ( 'NONE', #166, #432, #1184, .T. ) ;
#990 = ORIENTED_EDGE ( 'NONE', *, *, #589, .F. ) ;
#991 = DIRECTION ( 'NONE',  ( 0.000000000000000000, 1.000000000000000000, 0.000000000000000000 ) ) ;
#992 = VERTEX_POINT ( 'NONE', #972 ) ;
#993 =( LENGTH_UNIT ( ) NAMED_UNIT ( * ) SI_UNIT ( .MILLI., .METRE. ) );
#994 = LINE ( 'NONE', #765, #96 ) ;
#995 = LINE ( 'NONE', #819, #470 ) ;
#996 = EDGE_LOOP ( 'NONE', ( #1039, #719, #391, #927 ) ) ;
#997 = EDGE_CURVE ( 'NONE', #1134, #200, #1302, .T. ) ;
#998 = DIRECTION ( 'NONE',  ( -0.000000000000000000, -1.000000000000000000, -0.000000000000000000 ) ) ;
#999 = DIRECTION ( 'NONE',  ( 0.000000000000000000, 0.000000000000000000, -1.000000000000000000 ) ) ;
#1000 = CARTESIAN_POINT ( 'NONE',  ( 20.20000000000000284, 0.5000000000000000000, -21.59999999999996589 ) ) ;
#1001 = VERTEX_POINT ( 'NONE', #687 ) ;
#1002 = ORIENTED_EDGE ( 'NONE', *, *, #71, .T. ) ;
#1003 = FACE_OUTER_BOUND ( 'NONE', #113, .T. ) ;
#1004 = LINE ( 'NONE', #1114, #356 ) ;
#1005 = AXIS2_PLACEMENT_3D ( 'NONE', #183, #506, #399 ) ;
#1006 = EDGE_CURVE ( 'NONE', #578, #527, #869, .T. ) ;
#1007 = CIRCLE ( 'NONE', #1233, 8.500000000000000000 ) ;
#1008 = ORIENTED_EDGE ( 'NONE', *, *, #851, .F. ) ;
#1009 = CARTESIAN_POINT ( 'NONE',  ( 35.00000000000000000, 3.000000000000000000, -29.00000000000000355 ) ) ;
#1010 = LINE ( 'NONE', #405, #91 ) ;
#1011 = VECTOR ( 'NONE', #1206, 1000.000000000000000 ) ;
#1012 = ADVANCED_FACE ( 'NONE', ( #1285 ), #881, .T. ) ;
#1013 = DIRECTION ( 'NONE',  ( 0.000000000000000000, 0.000000000000000000, -1.000000000000000000 ) ) ;
#1014 = EDGE_LOOP ( 'NONE', ( #735, #144, #1245, #171 ) ) ;
#1015 = LINE ( 'NONE', #101, #824 ) ;
#1016 = CARTESIAN_POINT ( 'NONE',  ( 35.00000000000000000, 0.000000000000000000, 28.99999999999998934 ) ) ;
#1017 = DIRECTION ( 'NONE',  ( -0.000000000000000000, -1.000000000000000000, -0.000000000000000000 ) ) ;
#1018 = EDGE_CURVE ( 'NONE', #889, #179, #170, .T. ) ;
#1019 = VECTOR ( 'NONE', #107, 1000.000000000000000 ) ;
#1020 = ORIENTED_EDGE ( 'NONE', *, *, #1202, .T. ) ;
#1021 = CARTESIAN_POINT ( 'NONE',  ( -13.49999999999999822, 0.5000000000000000000, 6.899999999999989697 ) ) ;
#1022 = EDGE_CURVE ( 'NONE', #125, #372, #994, .T. ) ;
#1023 = CARTESIAN_POINT ( 'NONE',  ( 35.00000000000000000, 0.000000000000000000, -29.00000000000000355 ) ) ;
#1024 = ORIENTED_EDGE ( 'NONE', *, *, #46, .F. ) ;
#1025 = AXIS2_PLACEMENT_3D ( 'NONE', #90, #1099, #1284 ) ;
#1026 = ADVANCED_FACE ( 'NONE', ( #83 ), #371, .F. ) ;
#1027 = VERTEX_POINT ( 'NONE', #252 ) ;
#1028 = VERTEX_POINT ( 'NONE', #150 ) ;
#1029 = PLANE ( 'NONE',  #7 ) ;
#1030 = LINE ( 'NONE', #311, #793 ) ;
#1031 = CARTESIAN_POINT ( 'NONE',  ( 25.00000000000000000, 5.000000000000000000, -29.00000000000000355 ) ) ;
#1032 = VERTEX_POINT ( 'NONE', #1065 ) ;
#1033 = DIRECTION ( 'NONE',  ( 0.000000000000000000, 0.000000000000000000, 1.000000000000000000 ) ) ;
#1034 = ORIENTED_EDGE ( 'NONE', *, *, #1216, .F. ) ;
#1035 = EDGE_CURVE ( 'NONE', #432, #80, #572, .T. ) ;
#1036 = CARTESIAN_POINT ( 'NONE',  ( -33.50000000000000000, 5.000000000000000000, 28.99999999999998934 ) ) ;
#1037 = DIRECTION ( 'NONE',  ( -0.000000000000000000, -1.000000000000000000, -0.000000000000000000 ) ) ;
#1038 = LINE ( 'NONE', #955, #172 ) ;
#1039 = ORIENTED_EDGE ( 'NONE', *, *, #1216, .T. ) ;
#1040 = LINE ( 'NONE', #637, #1289 ) ;
#1041 = LINE ( 'NONE', #540, #518 ) ;
#1042 = FACE_BOUND ( 'NONE', #512, .T. ) ;
#1043 = EDGE_CURVE ( 'NONE', #577, #893, #782, .T. ) ;
#1044 = FACE_OUTER_BOUND ( 'NONE', #390, .T. ) ;
#1045 = CARTESIAN_POINT ( 'NONE',  ( -14.99999999999995737, 0.5000000000000000000, 13.59999999999998899 ) ) ;
#1046 = CIRCLE ( 'NONE', #517, 9.250000000000001776 ) ;
#1047 = VERTEX_POINT ( 'NONE', #1073 ) ;
#1048 = CYLINDRICAL_SURFACE ( 'NONE', #491, 5.200000000000000178 ) ;
#1049 = CARTESIAN_POINT ( 'NONE',  ( 20.20000000000000284, 0.5000000000000000000, -21.59999999999996589 ) ) ;
#1050 = VECTOR ( 'NONE', #249, 1000.000000000000000 ) ;
#1051 = CARTESIAN_POINT ( 'NONE',  ( -25.00000000000000000, 3.000000000000000000, 38.24999999999999289 ) ) ;
#1052 = PRODUCT_DEFINITION ( 'UNKNOWN', '', #503, #199 ) ;
#1053 = DIRECTION ( 'NONE',  ( 0.000000000000000000, 1.000000000000000000, 0.000000000000000000 ) ) ;
#1054 = CARTESIAN_POINT ( 'NONE',  ( -14.99999999999995737, 0.5000000000000000000, 13.59999999999998899 ) ) ;
#1055 = VERTEX_POINT ( 'NONE', #157 ) ;
#1056 = ORIENTED_EDGE ( 'NONE', *, *, #1197, .T. ) ;
#1057 = CARTESIAN_POINT ( 'NONE',  ( 35.00000000000000000, 3.000000000000000000, 28.99999999999998934 ) ) ;
#1058 = CARTESIAN_POINT ( 'NONE',  ( -25.00000000000000000, 3.000000000000000000, -39.00000000000000711 ) ) ;
#1059 = CARTESIAN_POINT ( 'NONE',  ( -20.19999999999999574, 0.5000000000000000000, -21.59999999999997655 ) ) ;
#1060 = PLANE ( 'NONE',  #190 ) ;
#1061 = ORIENTED_EDGE ( 'NONE', *, *, #698, .T. ) ;
#1062 = CARTESIAN_POINT ( 'NONE',  ( 25.00000000000000000, 3.000000000000000000, -29.00000000000000355 ) ) ;
#1063 = CIRCLE ( 'NONE', #594, 8.500000000000000000 ) ;
#1064 = EDGE_CURVE ( 'NONE', #1225, #73, #575, .T. ) ;
#1065 = CARTESIAN_POINT ( 'NONE',  ( -25.00000000000000000, 5.000000000000000000, 38.24999999999999289 ) ) ;
#1066 = PLANE ( 'NONE',  #922 ) ;
#1067 = ORIENTED_EDGE ( 'NONE', *, *, #596, .F. ) ;
#1068 = FILL_AREA_STYLE_COLOUR ( '', #691 ) ;
#1069 = EDGE_CURVE ( 'NONE', #490, #166, #1106, .T. ) ;
#1070 = DIRECTION ( 'NONE',  ( 0.000000000000000000, -1.000000000000000000, 0.000000000000000000 ) ) ;
#1071 = DIRECTION ( 'NONE',  ( 2.312964634635749366E-16, 0.000000000000000000, -1.000000000000000000 ) ) ;
#1072 = AXIS2_PLACEMENT_3D ( 'NONE', #762, #41, #1164 ) ;
#1073 = CARTESIAN_POINT ( 'NONE',  ( -35.00000000000000000, 0.000000000000000000, 28.99999999999998934 ) ) ;
#1074 = VERTEX_POINT ( 'NONE', #985 ) ;
#1075 = DIRECTION ( 'NONE',  ( 0.000000000000000000, 0.000000000000000000, -1.000000000000000000 ) ) ;
#1076 = ORIENTED_EDGE ( 'NONE', *, *, #283, .T. ) ;
#1077 = VECTOR ( 'NONE', #58, 1000.000000000000000 ) ;
#1078 = VECTOR ( 'NONE', #665, 1000.000000000000000 ) ;
#1079 = ADVANCED_FACE ( 'NONE', ( #677 ), #1081, .F. ) ;
#1080 = DIRECTION ( 'NONE',  ( 0.000000000000000000, 1.000000000000000000, 0.000000000000000000 ) ) ;
#1081 = PLANE ( 'NONE',  #251 ) ;
#1082 = ORIENTED_EDGE ( 'NONE', *, *, #82, .T. ) ;
#1083 = DIRECTION ( 'NONE',  ( -1.000000000000000000, 0.000000000000000000, -0.000000000000000000 ) ) ;
#1084 = EDGE_LOOP ( 'NONE', ( #1191, #823, #108, #88 ) ) ;
#1085 = ORIENTED_EDGE ( 'NONE', *, *, #508, .F. ) ;
#1086 = DIRECTION ( 'NONE',  ( 0.000000000000000000, 1.000000000000000000, -0.000000000000000000 ) ) ;
#1087 = LINE ( 'NONE', #15, #1176 ) ;
#1088 = ADVANCED_FACE ( 'NONE', ( #481 ), #1092, .F. ) ;
#1089 = DIRECTION ( 'NONE',  ( -0.000000000000000000, -1.000000000000000000, -0.000000000000000000 ) ) ;
#1090 = EDGE_LOOP ( 'NONE', ( #38, #587, #30, #286 ) ) ;
#1091 = CIRCLE ( 'NONE', #1115, 5.200000000000000178 ) ;
#1092 = CYLINDRICAL_SURFACE ( 'NONE', #768, 8.500000000000000000 ) ;
#1093 = VECTOR ( 'NONE', #1137, 1000.000000000000000 ) ;
#1094 = EDGE_CURVE ( 'NONE', #950, #1225, #618, .T. ) ;
#1095 = CARTESIAN_POINT ( 'NONE',  ( -20.19999999999999574, 0.5000000000000000000, 8.399999999999952394 ) ) ;
#1096 = ORIENTED_EDGE ( 'NONE', *, *, #989, .T. ) ;
#1097 = CARTESIAN_POINT ( 'NONE',  ( 13.49999999999999822, 0.5000000000000000000, -22.33097289055185897 ) ) ;
#1098 = DIRECTION ( 'NONE',  ( -0.000000000000000000, -0.000000000000000000, -1.000000000000000000 ) ) ;
#1099 = DIRECTION ( 'NONE',  ( -0.000000000000000000, -1.000000000000000000, -0.000000000000000000 ) ) ;
#1100 = CARTESIAN_POINT ( 'NONE',  ( 25.00000000000000000, 5.000000000000000000, 37.49999999999999289 ) ) ;
#1101 = ORIENTED_EDGE ( 'NONE', *, *, #359, .F. ) ;
#1102 = ORIENTED_EDGE ( 'NONE', *, *, #84, .T. ) ;
#1103 = DIRECTION ( 'NONE',  ( 0.000000000000000000, 0.000000000000000000, 1.000000000000000000 ) ) ;
#1104 = EDGE_CURVE ( 'NONE', #1156, #1299, #757, .T. ) ;
#1105 = CARTESIAN_POINT ( 'NONE',  ( -13.49999999999999822, 0.5000000000000000000, -22.33097289055185897 ) ) ;
#1106 = CIRCLE ( 'NONE', #367, 9.250000000000001776 ) ;
#1107 = CIRCLE ( 'NONE', #642, 5.199999999999996625 ) ;
#1108 = ORIENTED_EDGE ( 'NONE', *, *, #726, .T. ) ;
#1109 = ORIENTED_EDGE ( 'NONE', *, *, #2, .F. ) ;
#1110 = EDGE_CURVE ( 'NONE', #350, #957, #70, .T. ) ;
#1111 = DIRECTION ( 'NONE',  ( 0.000000000000000000, 1.000000000000000000, 0.000000000000000000 ) ) ;
#1112 = APPLICATION_CONTEXT ( 'automotive_design' ) ;
#1113 = CARTESIAN_POINT ( 'NONE',  ( 13.49999999999999822, 1.500000000000000000, 6.899999999999990585 ) ) ;
#1114 = CARTESIAN_POINT ( 'NONE',  ( 20.20000000000000284, 0.5000000000000000000, -21.59999999999996589 ) ) ;
#1115 = AXIS2_PLACEMENT_3D ( 'NONE', #983, #478, #388 ) ;
#1116 = AXIS2_PLACEMENT_3D ( 'NONE', #822, #301, #534 ) ;
#1117 = ORIENTED_EDGE ( 'NONE', *, *, #989, .F. ) ;
#1118 = CARTESIAN_POINT ( 'NONE',  ( -25.00000000000000000, 3.000000000000000000, -37.50000000000000711 ) ) ;
#1119 = EDGE_CURVE ( 'NONE', #80, #1055, #598, .T. ) ;
#1120 = CIRCLE ( 'NONE', #198, 9.250000000000001776 ) ;
#1121 = DIRECTION ( 'NONE',  ( -0.000000000000000000, -1.000000000000000000, -0.000000000000000000 ) ) ;
#1122 = EDGE_LOOP ( 'NONE', ( #1020, #877, #1117, #160 ) ) ;
#1123 = ORIENTED_EDGE ( 'NONE', *, *, #678, .T. ) ;
#1124 = DIRECTION ( 'NONE',  ( 0.000000000000000000, 0.000000000000000000, -1.000000000000000000 ) ) ;
#1125 = DIRECTION ( 'NONE',  ( -1.000000000000000000, -0.000000000000000000, -0.000000000000000000 ) ) ;
#1126 = DIRECTION ( 'NONE',  ( 0.000000000000000000, 1.000000000000000000, -0.000000000000000000 ) ) ;
#1127 = EDGE_CURVE ( 'NONE', #374, #1028, #5, .T. ) ;
#1128 = ORIENTED_EDGE ( 'NONE', *, *, #122, .F. ) ;
#1129 = DIRECTION ( 'NONE',  ( 0.000000000000000000, 1.000000000000000000, 0.000000000000000000 ) ) ;
#1130 = DIRECTION ( 'NONE',  ( -3.212450881438532980E-17, 0.000000000000000000, 1.000000000000000000 ) ) ;
#1131 = FACE_OUTER_BOUND ( 'NONE', #210, .T. ) ;
#1132 = CARTESIAN_POINT ( 'NONE',  ( 13.49999999999999822, 0.5000000000000000000, -22.33097289055185897 ) ) ;
#1133 = EDGE_CURVE ( 'NONE', #1208, #1001, #1004, .T. ) ;
#1134 = VERTEX_POINT ( 'NONE', #1100 ) ;
#1135 = AXIS2_PLACEMENT_3D ( 'NONE', #455, #844, #156 ) ;
#1136 = CARTESIAN_POINT ( 'NONE',  ( -20.19999999999999574, 0.5000000000000000000, 8.399999999999952394 ) ) ;
#1137 = DIRECTION ( 'NONE',  ( -0.000000000000000000, -1.000000000000000000, -0.000000000000000000 ) ) ;
#1138 = LINE ( 'NONE', #631, #943 ) ;
#1139 = DIRECTION ( 'NONE',  ( 0.000000000000000000, 0.000000000000000000, -1.000000000000000000 ) ) ;
#1140 = AXIS2_PLACEMENT_3D ( 'NONE', #697, #1017, #93 ) ;
#1141 = DIRECTION ( 'NONE',  ( -0.000000000000000000, -1.000000000000000000, -0.000000000000000000 ) ) ;
#1142 = PLANE ( 'NONE',  #984 ) ;
#1143 = CARTESIAN_POINT ( 'NONE',  ( 25.00000000000000000, 0.000000000000000000, 38.99999999999999289 ) ) ;
#1144 = DIRECTION ( 'NONE',  ( -1.000000000000000000, 0.000000000000000000, -2.312964634635748873E-16 ) ) ;
#1145 = FACE_OUTER_BOUND ( 'NONE', #900, .T. ) ;
#1146 = ADVANCED_FACE ( 'NONE', ( #1201 ), #414, .F. ) ;
#1147 = DIRECTION ( 'NONE',  ( 0.000000000000000000, 0.000000000000000000, 1.000000000000000000 ) ) ;
#1148 = DIRECTION ( 'NONE',  ( -2.312964634635749366E-16, 0.000000000000000000, 1.000000000000000000 ) ) ;
#1149 = ORIENTED_EDGE ( 'NONE', *, *, #774, .F. ) ;
#1150 = FACE_OUTER_BOUND ( 'NONE', #825, .T. ) ;
#1151 = EDGE_CURVE ( 'NONE', #1306, #1156, #790, .T. ) ;
#1152 = CARTESIAN_POINT ( 'NONE',  ( 25.00000000000000000, 5.000000000000000000, 38.24999999999999289 ) ) ;
#1153 = CARTESIAN_POINT ( 'NONE',  ( 13.49999999999999822, 0.5000000000000000000, 6.899999999999990585 ) ) ;
#1154 = LINE ( 'NONE', #1118, #373 ) ;
#1155 = AXIS2_PLACEMENT_3D ( 'NONE', #289, #696, #1103 ) ;
#1156 = VERTEX_POINT ( 'NONE', #1304 ) ;
#1157 = AXIS2_PLACEMENT_3D ( 'NONE', #33, #154, #640 ) ;
#1158 = SHAPE_DEFINITION_REPRESENTATION ( #180, #749 ) ;
#1159 = VECTOR ( 'NONE', #231, 1000.000000000000000 ) ;
#1160 = ORIENTED_EDGE ( 'NONE', *, *, #797, .F. ) ;
#1161 = ORIENTED_EDGE ( 'NONE', *, *, #797, .T. ) ;
#1162 = DIRECTION ( 'NONE',  ( -1.000000000000000000, 0.000000000000000000, 0.000000000000000000 ) ) ;
#1163 = LINE ( 'NONE', #439, #1170 ) ;
#1164 = DIRECTION ( 'NONE',  ( 0.000000000000000000, 0.000000000000000000, 1.000000000000000000 ) ) ;
#1165 = CARTESIAN_POINT ( 'NONE',  ( 25.00000000000000000, 5.000000000000000000, -38.25000000000000711 ) ) ;
#1166 = EDGE_CURVE ( 'NONE', #925, #889, #551, .T. ) ;
#1167 = CARTESIAN_POINT ( 'NONE',  ( 25.00000000000000000, 5.000000000000000000, -38.25000000000000711 ) ) ;
#1168 = ORIENTED_EDGE ( 'NONE', *, *, #446, .F. ) ;
#1169 = DIRECTION ( 'NONE',  ( -0.000000000000000000, -1.000000000000000000, -0.000000000000000000 ) ) ;
#1170 = VECTOR ( 'NONE', #741, 1000.000000000000000 ) ;
#1171 = CARTESIAN_POINT ( 'NONE',  ( 33.50000000000000000, 1.500000000000000000, 28.99999999999998934 ) ) ;
#1172 = VERTEX_POINT ( 'NONE', #1023 ) ;
#1173 = EDGE_CURVE ( 'NONE', #1172, #408, #522, .T. ) ;
#1174 = EDGE_LOOP ( 'NONE', ( #185, #841, #626, #240 ) ) ;
#1175 = DIRECTION ( 'NONE',  ( -0.000000000000000000, -1.000000000000000000, -0.000000000000000000 ) ) ;
#1176 = VECTOR ( 'NONE', #643, 1000.000000000000000 ) ;
#1177 = CARTESIAN_POINT ( 'NONE',  ( -25.00000000000000000, 3.000000000000000000, -39.00000000000000711 ) ) ;
#1178 = ORIENTED_EDGE ( 'NONE', *, *, #298, .T. ) ;
#1179 = VERTEX_POINT ( 'NONE', #502 ) ;
#1180 = ORIENTED_EDGE ( 'NONE', *, *, #145, .F. ) ;
#1181 = EDGE_CURVE ( 'NONE', #950, #1172, #795, .T. ) ;
#1182 = CARTESIAN_POINT ( 'NONE',  ( -14.99999999999999645, 0.5000000000000000000, 13.59999999999999076 ) ) ;
#1183 = CARTESIAN_POINT ( 'NONE',  ( 25.00000000000000000, 3.000000000000000000, -38.25000000000000711 ) ) ;
#1184 = LINE ( 'NONE', #378, #533 ) ;
#1185 = EDGE_LOOP ( 'NONE', ( #798, #360, #216, #967 ) ) ;
#1186 = DIRECTION ( 'NONE',  ( 0.000000000000000000, 0.000000000000000000, -1.000000000000000000 ) ) ;
#1187 = CYLINDRICAL_SURFACE ( 'NONE', #940, 9.250000000000001776 ) ;
#1188 = PLANE ( 'NONE',  #1005 ) ;
#1189 = DIRECTION ( 'NONE',  ( 0.000000000000000000, 0.000000000000000000, -1.000000000000000000 ) ) ;
#1190 = ORIENTED_EDGE ( 'NONE', *, *, #1043, .F. ) ;
#1191 = ORIENTED_EDGE ( 'NONE', *, *, #343, .T. ) ;
#1192 = LINE ( 'NONE', #498, #1257 ) ;
#1193 = FACE_OUTER_BOUND ( 'NONE', #141, .T. ) ;
#1194 = CARTESIAN_POINT ( 'NONE',  ( 25.00000000000000000, 5.000000000000000000, -38.25000000000000711 ) ) ;
#1195 = VECTOR ( 'NONE', #833, 1000.000000000000000 ) ;
#1196 = ORIENTED_EDGE ( 'NONE', *, *, #929, .T. ) ;
#1197 = EDGE_CURVE ( 'NONE', #924, #459, #617, .T. ) ;
#1198 = UNCERTAINTY_MEASURE_WITH_UNIT (LENGTH_MEASURE( 1.000000000000000082E-05 ), #1230, 'distance_accuracy_value', 'NONE');
#1199 = VECTOR ( 'NONE', #713, 1000.000000000000000 ) ;
#1200 = DIRECTION ( 'NONE',  ( -0.000000000000000000, -1.000000000000000000, 0.000000000000000000 ) ) ;
#1201 = FACE_OUTER_BOUND ( 'NONE', #72, .T. ) ;
#1202 = EDGE_CURVE ( 'NONE', #661, #1179, #519, .T. ) ;
#1203 = VERTEX_POINT ( 'NONE', #700 ) ;
#1204 = CARTESIAN_POINT ( 'NONE',  ( 20.19999999999999574, 0.000000000000000000, 8.399999999999952394 ) ) ;
#1205 = LINE ( 'NONE', #1290, #278 ) ;
#1206 = DIRECTION ( 'NONE',  ( 0.000000000000000000, 0.000000000000000000, -1.000000000000000000 ) ) ;
#1207 = AXIS2_PLACEMENT_3D ( 'NONE', #173, #991, #1287 ) ;
#1208 = VERTEX_POINT ( 'NONE', #1000 ) ;
#1209 = ORIENTED_EDGE ( 'NONE', *, *, #678, .F. ) ;
#1210 = LINE ( 'NONE', #978, #832 ) ;
#1211 = DIRECTION ( 'NONE',  ( -0.000000000000000000, -1.000000000000000000, -0.000000000000000000 ) ) ;
#1212 = ORIENTED_EDGE ( 'NONE', *, *, #1018, .F. ) ;
#1213 = VECTOR ( 'NONE', #1162, 1000.000000000000000 ) ;
#1214 = DIRECTION ( 'NONE',  ( -0.000000000000000000, -1.000000000000000000, -0.000000000000000000 ) ) ;
#1215 = EDGE_LOOP ( 'NONE', ( #620, #791, #701, #531 ) ) ;
#1216 = EDGE_CURVE ( 'NONE', #599, #1172, #110, .T. ) ;
#1217 = VECTOR ( 'NONE', #1211, 1000.000000000000000 ) ;
#1218 = CARTESIAN_POINT ( 'NONE',  ( -14.99999999999999645, 0.5000000000000000000, -21.60000000000001208 ) ) ;
#1219 = ORIENTED_EDGE ( 'NONE', *, *, #596, .T. ) ;
#1220 = UNCERTAINTY_MEASURE_WITH_UNIT (LENGTH_MEASURE( 1.000000000000000082E-05 ), #993, 'distance_accuracy_value', 'NONE');
#1221 = CARTESIAN_POINT ( 'NONE',  ( -13.49999999999999822, 0.5000000000000000000, 6.899999999999989697 ) ) ;
#1222 = ORIENTED_EDGE ( 'NONE', *, *, #694, .F. ) ;
#1223 = DIRECTION ( 'NONE',  ( -0.000000000000000000, -1.000000000000000000, -0.000000000000000000 ) ) ;
#1224 = VECTOR ( 'NONE', #608, 1000.000000000000000 ) ;
#1225 = VERTEX_POINT ( 'NONE', #707 ) ;
#1226 = ORIENTED_EDGE ( 'NONE', *, *, #769, .F. ) ;
#1227 = ORIENTED_EDGE ( 'NONE', *, *, #237, .F. ) ;
#1228 = CARTESIAN_POINT ( 'NONE',  ( -33.50000000000000000, 3.000000000000000000, 28.99999999999998934 ) ) ;
#1229 = CARTESIAN_POINT ( 'NONE',  ( -25.00000000000000000, 3.000000000000000000, 28.99999999999998934 ) ) ;
#1230 =( LENGTH_UNIT ( ) NAMED_UNIT ( * ) SI_UNIT ( .MILLI., .METRE. ) );
#1231 = ORIENTED_EDGE ( 'NONE', *, *, #22, .F. ) ;
#1232 = CARTESIAN_POINT ( 'NONE',  ( -35.00000000000000000, 0.000000000000000000, 28.99999999999998934 ) ) ;
#1233 = AXIS2_PLACEMENT_3D ( 'NONE', #686, #781, #377 ) ;
#1234 = ORIENTED_EDGE ( 'NONE', *, *, #829, .T. ) ;
#1235 = CARTESIAN_POINT ( 'NONE',  ( 25.00000000000000000, 3.000000000000000000, -29.00000000000000355 ) ) ;
#1236 = CIRCLE ( 'NONE', #923, 5.200000000000000178 ) ;
#1237 = AXIS2_PLACEMENT_3D ( 'NONE', #64, #564, #384 ) ;
#1238 = LINE ( 'NONE', #438, #13 ) ;
#1239 = FACE_OUTER_BOUND ( 'NONE', #996, .T. ) ;
#1240 = EDGE_CURVE ( 'NONE', #80, #548, #605, .T. ) ;
#1241 = VERTEX_POINT ( 'NONE', #1291 ) ;
#1242 = CARTESIAN_POINT ( 'NONE',  ( -35.00000000000000000, 3.000000000000000000, 28.99999999999998934 ) ) ;
#1243 = EDGE_LOOP ( 'NONE', ( #279, #287, #276, #668, #476, #1034, #773, #750 ) ) ;
#1244 = CARTESIAN_POINT ( 'NONE',  ( 25.00000000000000000, 3.000000000000000000, 28.99999999999998934 ) ) ;
#1245 = ORIENTED_EDGE ( 'NONE', *, *, #46, .T. ) ;
#1246 = ORIENTED_EDGE ( 'NONE', *, *, #1305, .F. ) ;
#1247 = ADVANCED_FACE ( 'NONE', ( #389 ), #282, .F. ) ;
#1248 = PLANE ( 'NONE',  #347 ) ;
#1249 = DIRECTION ( 'NONE',  ( 0.000000000000000000, 1.000000000000000000, 0.000000000000000000 ) ) ;
#1250 = DIRECTION ( 'NONE',  ( -0.000000000000000000, -1.000000000000000000, -0.000000000000000000 ) ) ;
#1251 = ADVANCED_FACE ( 'NONE', ( #897, #87 ), #1309, .F. ) ;
#1252 = CARTESIAN_POINT ( 'NONE',  ( -25.00000000000000000, 3.000000000000000000, -39.00000000000000711 ) ) ;
#1253 = LINE ( 'NONE', #949, #541 ) ;
#1254 = ORIENTED_EDGE ( 'NONE', *, *, #268, .T. ) ;
#1255 = DIRECTION ( 'NONE',  ( -0.000000000000000000, -1.000000000000000000, -0.000000000000000000 ) ) ;
#1256 = DIRECTION ( 'NONE',  ( 0.000000000000000000, -0.000000000000000000, 1.000000000000000000 ) ) ;
#1257 = VECTOR ( 'NONE', #1098, 1000.000000000000000 ) ;
#1258 = CARTESIAN_POINT ( 'NONE',  ( 14.99999999999996092, 0.5000000000000000000, 13.59999999999998899 ) ) ;
#1259 = CIRCLE ( 'NONE', #1277, 9.250000000000001776 ) ;
#1260 = ADVANCED_FACE ( 'NONE', ( #493 ), #511, .F. ) ;
#1261 = DIRECTION ( 'NONE',  ( 1.000000000000000000, -0.000000000000000000, 0.000000000000000000 ) ) ;
#1262 = ORIENTED_EDGE ( 'NONE', *, *, #552, .T. ) ;
#1263 = FACE_OUTER_BOUND ( 'NONE', #571, .T. ) ;
#1264 = VECTOR ( 'NONE', #771, 1000.000000000000000 ) ;
#1265 = CARTESIAN_POINT ( 'NONE',  ( 34.25000000000000000, 5.000000000000000000, -29.00000000000000355 ) ) ;
#1266 = ADVANCED_FACE ( 'NONE', ( #184 ), #451, .F. ) ;
#1267 = DIRECTION ( 'NONE',  ( 0.000000000000000000, -0.000000000000000000, 1.000000000000000000 ) ) ;
#1268 = VERTEX_POINT ( 'NONE', #658 ) ;
#1269 = ORIENTED_EDGE ( 'NONE', *, *, #178, .T. ) ;
#1270 =( NAMED_UNIT ( * ) SI_UNIT ( $, .STERADIAN. ) SOLID_ANGLE_UNIT ( ) );
#1271 = DIRECTION ( 'NONE',  ( -0.000000000000000000, -1.000000000000000000, -0.000000000000000000 ) ) ;
#1272 = DIRECTION ( 'NONE',  ( 0.000000000000000000, 0.000000000000000000, 1.000000000000000000 ) ) ;
#1273 = VERTEX_POINT ( 'NONE', #327 ) ;
#1274 = EDGE_CURVE ( 'NONE', #212, #578, #325, .T. ) ;
#1275 = ORIENTED_EDGE ( 'NONE', *, *, #1035, .T. ) ;
#1276 = VECTOR ( 'NONE', #998, 1000.000000000000000 ) ;
#1277 = AXIS2_PLACEMENT_3D ( 'NONE', #1062, #1080, #76 ) ;
#1278 = CARTESIAN_POINT ( 'NONE',  ( -25.00000000000000000, 5.000000000000000000, -29.00000000000000355 ) ) ;
#1279 = VECTOR ( 'NONE', #1141, 1000.000000000000000 ) ;
#1280 = AXIS2_PLACEMENT_3D ( 'NONE', #931, #214, #25 ) ;
#1281 = ORIENTED_EDGE ( 'NONE', *, *, #1166, .F. ) ;
#1282 = ADVANCED_FACE ( 'NONE', ( #245 ), #543, .F. ) ;
#1283 = VERTEX_POINT ( 'NONE', #437 ) ;
#1284 = DIRECTION ( 'NONE',  ( 0.000000000000000000, 0.000000000000000000, -1.000000000000000000 ) ) ;
#1285 = FACE_OUTER_BOUND ( 'NONE', #758, .T. ) ;
#1286 = ORIENTED_EDGE ( 'NONE', *, *, #1104, .F. ) ;
#1287 = DIRECTION ( 'NONE',  ( 0.000000000000000000, 0.000000000000000000, 1.000000000000000000 ) ) ;
#1288 = LINE ( 'NONE', #201, #746 ) ;
#1289 = VECTOR ( 'NONE', #330, 1000.000000000000000 ) ;
#1290 = CARTESIAN_POINT ( 'NONE',  ( 33.50000000000000000, 3.000000000000000000, 28.99999999999998934 ) ) ;
#1291 = CARTESIAN_POINT ( 'NONE',  ( -14.99999999999995737, 0.5000000000000000000, -26.80000000000001137 ) ) ;
#1292 = ORIENTED_EDGE ( 'NONE', *, *, #475, .T. ) ;
#1293 = ADVANCED_FACE ( 'NONE', ( #1145 ), #319, .T. ) ;
#1294 = EDGE_LOOP ( 'NONE', ( #1281, #1209, #206, #440 ) ) ;
#1295 = VERTEX_POINT ( 'NONE', #1051 ) ;
#1296 = ADVANCED_FACE ( 'NONE', ( #443 ), #717, .F. ) ;
#1297 = CARTESIAN_POINT ( 'NONE',  ( 25.00000000000000000, 1.500000000000000000, 28.99999999999998934 ) ) ;
#1298 = VERTEX_POINT ( 'NONE', #1036 ) ;
#1299 = VERTEX_POINT ( 'NONE', #945 ) ;
#1300 = FACE_OUTER_BOUND ( 'NONE', #813, .T. ) ;
#1301 = AXIS2_PLACEMENT_3D ( 'NONE', #209, #191, #395 ) ;
#1302 = CIRCLE ( 'NONE', #1237, 8.500000000000000000 ) ;
#1303 = FACE_OUTER_BOUND ( 'NONE', #416, .T. ) ;
#1304 = CARTESIAN_POINT ( 'NONE',  ( -13.49999999999999822, 1.500000000000000000, -22.33097289055185897 ) ) ;
#1305 = EDGE_CURVE ( 'NONE', #941, #219, #1236, .T. ) ;
#1306 = VERTEX_POINT ( 'NONE', #845 ) ;
#1307 = EDGE_LOOP ( 'NONE', ( #471, #733, #938, #849, #100, #932, #742, #3 ) ) ;
#1308 = CYLINDRICAL_SURFACE ( 'NONE', #50, 9.250000000000001776 ) ;
#1309 = PLANE ( 'NONE',  #59 ) ;
ENDSEC;
END-ISO-10303-21;
